<?xml version="1.0" encoding="UTF-8" standalone="no"?>
<svg
   xmlns:dc="http://purl.org/dc/elements/1.1/"
   xmlns:cc="http://creativecommons.org/ns#"
   xmlns:rdf="http://www.w3.org/1999/02/22-rdf-syntax-ns#"
   xmlns:svg="http://www.w3.org/2000/svg"
   xmlns="http://www.w3.org/2000/svg"
   id="svg5340"
   version="1.1"
   viewBox="0 0 52.916665 52.916668"
   height="200"
   width="200">
  <defs
     id="defs5334" />
  <metadata
     id="metadata5337">
    <rdf:RDF>
      <cc:Work
         rdf:about="">
        <dc:format>image/svg+xml</dc:format>
        <dc:type
           rdf:resource="http://purl.org/dc/dcmitype/StillImage" />
        <dc:title></dc:title>
      </cc:Work>
    </rdf:RDF>
  </metadata>
  <g
     transform="translate(0,-244.08332)"
     id="layer1">
    <g
       id="g2690"
       transform="translate(-71.815476,159.12797)">
      <rect
         id="rect51"
         width="52.916668"
         height="52.916668"
         x="71.815475"
         y="84.955353"
         style="fill:#83a9d3;stroke-width:0.24398258" />
      <g
         transform="matrix(0.12869404,0,0,0.12869404,64.723481,0.79823231)"
         id="g27"
         style="fill:#ffffff">
        <path
           id="path5"
           d="m 93.501679,972.18359 c 5.047378,-0.2249 9.466221,1.99976 9.299291,7.01416 0.72957,-3.80486 5.05587,-6.42828 8.44238,-6.56982 -1.30123,1.74983 -2.11176,3.37154 -2.60254,5.45898 -0.054,1.61169 -0.16131,3.11853 -0.1904,4.69727 v 8.95019 c 1.43438,0.35668 2.56906,0.76754 3.9038,1.20606 -1.44732,0.56561 -2.70528,1.40534 -3.71338,2.34863 v 22.59764 c 2.68195,-0.2318 4.54345,-1.9693 5.93506,-3.9038 -0.7674,4.0654 -2.71222,10.0505 -7.23632,10.1245 -3.20184,-0.4437 -4.87994,-3.0548 -5.01465,-5.8398 v -10.3467 H 86.741425 c -0.550131,0.063 -1.068523,0.3701 -1.555176,0.9204 -1.949508,3.2185 2.052564,2.723 3.967285,3.2056 1.139315,0.142 1.896607,2.5697 2.666016,4.0625 1.984476,3.3042 8.32195,-2.4247 10.31494,-4.6656 -1.2642,3.9386 -3.290243,6.5195 -5.458983,9.6167 -1.200243,1.6427 -2.843075,2.838 -4.729004,2.8565 -1.483047,-0.3077 -2.278775,-1.5135 -2.983399,-2.5391 -1.456432,-2.1207 -3.81416,-3.6714 -5.935058,-4.8559 -0.575343,2.6716 -0.265081,5.1864 0.793457,7.395 -3.110351,-0.8041 -5.088704,-2.6872 -5.935059,-5.6494 -0.685134,-2.3591 -0.188482,-4.9279 0.729981,-6.8238 1.012648,-1.6414 2.234767,-2.9842 3.649902,-3.7133 3.960612,-6.155 7.278449,-12.68258 10.791016,-19.10648 -3.553645,-0.7703 -7.141737,0.54962 -8.696289,3.52295 -2.603668,-8.49363 5.954177,-10.2789 12.060547,-10.31494 l 1.428222,-2.95166 c -6.540677,-1.04256 -14.355549,0.009 -17.741699,5.45899 -3.165622,5.7775 -1.872352,13.05681 3.364258,16.66264 -18.547242,-10.48046 -3.99385,-28.32261 10.029297,-28.81841 z m -3.237309,29.32621 h 12.25098 v -19.48736 h -2.06299 z" />
        <path
           id="path7"
           d="m 121.43136,1001.4463 v -3.11036 l 8.50586,-8.60108 c 2.19031,-1.74424 5.11296,-1.76096 6.85547,0.19043 l 6.47461,7.01416 -4.79248,4.50685 -4.79248,-5.26857 c -0.35604,-0.98438 -1.09986,-1.26022 -1.96777,-1.52343 -1.24666,0.47435 -1.49208,2.21307 -1.42823,3.26904 v 14.63136 c 0.99031,2.5984 3.03336,3.3779 5.39551,4.6973 2.35056,-0.136 3.88235,-1.2278 4.79248,-3.1421 l 2.79297,1.5551 -10.60059,12.2828 -7.52197,-7.0142 h -3.396 v -3.3008 h 2.79297 v -16.1865 z" />
        <path
           id="path9"
           d="m 147.42501,997.92334 v -2.72949 l 7.39502,-7.20459 6.25245,6.2207 5.99853,-6.03027 6.28418,6.2207 5.90332,-6.2207 7.61719,7.01416 v 2.91992 h -2.9834 v 22.62943 l 5.20508,-3.4912 1.4917,1.9042 -7.99805,7.9981 -4.98291,-5.0464 v -23.99413 h -5.93506 v 22.81983 h 2.91992 v 2.7295 l -4.41162,3.4912 -4.63379,-4.856 v -24.37496 h -6.09375 v 22.81986 h 2.79297 v 2.7295 l -4.50683,3.6816 -7.36329,-6.4111 v -3.3008 h 2.79297 v -19.51906 z" />
        <path
           id="path11"
           d="m 193.47726,996.17773 7.42676,-8.3789 4.60205,6.98242 7.20459,-6.60156 c 3.90831,2.70928 6.50393,7.11669 6.91894,11.48926 v 17.36085 c -1.37302,4.1051 -3.74617,7.467 -6.91894,9.9341 -2.32995,-2.3689 -4.60902,-4.3496 -7.39502,-6.2207 l -0.19043,10.9179 3.396,2.92 -1.14258,2.3486 -4.66553,-3.3008 h -6.12549 v -2.9517 l 3.01514,-0.5712 v -12.4732 l -3.01514,-0.9839 v -2.1582 l 3.01514,-0.3808 v -20.09037 l -4.79248,4.31641 z m 11.83838,18.12257 4.79248,3.5229 c 1.49946,-1.9964 2.6589,-3.5645 3.93555,-5.4589 v -8.1885 c -0.0914,-3.724 -1.48269,-7.10045 -4.25293,-9.17238 l -4.4751,3.90381 z" />
        <path
           id="path13"
           d="m 223.75558,1014.4272 c 0.47963,-3.9038 -0.79806,-8.5459 0.47608,-12.2192 0.40201,-1.2272 1.13199,-2.26398 2.18994,-3.11034 l 10.66406,-10.91797 c 5.37655,1.49032 7.40919,6.86334 7.87109,11.17187 v 15.61524 c -2.27725,4.832 -5.47015,8.8973 -9.6167,11.6797 h -2.18994 l -6.72851,-6.4746 c -1.80659,-1.6169 -2.53334,-3.5553 -2.66602,-5.7447 z m 6.18897,-0.7934 c 1.82296,2.8973 5.51043,8.2563 8.60107,5.2051 -0.0464,-4.5414 -0.0843,-9.4983 0.25391,-13.8379 -0.22909,-3.3691 -2.90757,-6.88614 -5.90332,-6.95071 -2.04256,0.7301 -3.18515,2.43911 -3.20557,4.41161 -0.26792,3.5224 -0.43925,7.4201 0.25391,11.1719 z" />
        <path
           id="path15"
           d="m 248.8923,1001.4463 v -3.11036 l 8.50586,-8.60108 c 2.19031,-1.74424 5.11296,-1.76096 6.85547,0.19043 l 6.47461,7.01416 -4.79248,4.50685 -4.79248,-5.26857 c -1.74125,-2.78866 -3.52876,-0.44999 -3.396,1.74561 v 14.63136 c 0.8156,2.4813 3.43068,3.6148 5.39551,4.6973 2.16649,0.039 3.95441,-1.4188 4.79248,-3.1421 l 2.79297,1.5551 -10.60059,12.2828 -7.52197,-7.0142 h -3.396 v -3.3008 h 2.79297 v -16.1865 z" />
        <path
           id="path17"
           d="m 274.88595,997.92334 v -2.72949 l 7.39502,-7.20459 6.25244,6.2207 5.99854,-6.03027 6.28418,6.2207 5.90332,-6.2207 7.61719,7.01416 v 2.91992 h -2.9834 v 22.62943 l 5.20508,-3.4912 1.49169,1.9042 -7.99804,7.9981 -4.98291,-5.0464 V 998.11377 H 299.134 v 22.81983 h 2.91992 v 2.7295 l -4.41162,3.4912 -4.63379,-4.856 v -24.37496 h -6.09375 v 22.81986 h 2.79297 v 2.7295 l -4.50684,3.6816 -7.36328,-6.4111 v -3.3008 h 2.79297 v -19.51906 z" />
        <path
           id="path19"
           d="m 320.68429,988.62402 h 2.22168 l 10.0293,10.91797 -1.23779,2.34861 -5.3003,-3.90378 c -0.30918,8.90908 -0.77701,19.39998 9.58496,19.51908 v -21.86772 c 0.50827,-2.99932 2.06165,-5.5396 4.4751,-7.01416 l 7.52197,6.76026 v 2.60254 h -5.99853 v 24.43848 c 3.53919,4.7594 3.76793,9.5939 1.7456,14.314 -2.52579,1.4081 -5.80816,1.3266 -8.60107,1.333 -3.68559,-0.094 -6.88066,-2.0447 -8.72803,-4.729 v -5.459 h 2.79297 c 1.65806,4.8996 10.26925,8.3936 11.80664,5.2051 0.32679,-2.7668 -0.85425,-6.3256 -3.04687,-7.9029 -7.18263,-3.9116 -16.81905,-10.1638 -17.26563,-18.3447 0.17353,-6.404 -0.64451,-11.99433 0,-18.21778 z" />
        <path
           id="path21"
           d="m 352.10521,1004.5566 c 1.36878,-5.2071 4.68078,-8.75549 8.85498,-11.17183 l -4.41162,-5.20508 -4.25293,-0.25391 v -5.99853 l 5.20508,-3.64991 14.12353,14.59961 3.45948,-2.34863 1.7456,2.34863 -3.45947,2.85645 -0.0635,17.9004 c 0.0941,2.022 -0.48648,4.047 -1.93603,5.2051 l -8.66455,8.601 -9.14063,-8.8549 c -0.63477,-0.8464 -1.05794,-1.6293 -1.26953,-2.3487 -0.39413,-3.8454 -0.19041,-7.6965 -0.19041,-11.6797 z m 4.44334,4.1578 c 2.65222,4.1554 6.68894,7.1771 11.17187,8.3154 v -15.0757 c 0,-1.6081 -0.16927,-2.81413 -0.50781,-3.61816 -1.44742,-1.64 -2.87224,-2.79378 -4.95117,-3.68164 -2.11958,2.08881 -3.93808,3.74221 -5.45898,6.5381 -0.31136,2.8572 -0.4828,4.7915 -0.25391,7.522 z" />
        <path
           id="path23"
           d="m 380.95529,997.92334 v -2.12647 l 7.01416,-7.61718 c 3.35462,1.97369 4.23776,4.73263 4.25293,8.18847 v 15.01224 c 0.491,4.8741 4.65664,6.4671 8.88672,5.8716 v -19.13823 h -2.91993 v -1.74561 l 7.20459,-8.18847 h 1.11084 v 6.82373 h 3.11036 v 3.11035 h -2.91993 v 19.51903 h 5.71289 v 2.9199 l -7.01416,6.8238 -5.8081,-6.2525 -5.90332,6.0303 c -4.77601,-3.0173 -7.33713,-7.1033 -7.39502,-12.6636 v -16.56736 z" />
        <path
           id="path25"
           d="m 416.05783,1020.1719 v -2.8565 h 6.18896 c 0.0163,-4.4263 1.82484,-7.2505 5.64942,-9.0136 -5.06564,-1.7923 -9.34882,-4.662 -9.3628,-10.12455 3.01767,-7.34531 15.91689,-7.83771 19.2334,-3.04688 -0.36443,-2.43026 0.33366,-3.72422 1.4917,-5.74463 h 2.72949 l 4.69727,-2.5708 v 3.396 l -2.91992,1.77734 v 25.32712 h 2.91992 v 3.1104 l -7.42676,6.2207 c -0.71649,-3.9793 -1.4917,-7.895 -1.4917,-11.9336 l -5.64941,-3.6817 c -4.16446,4.3379 -6.3629,10.2404 -6.44287,15.8692 h -2.7295 z m 16.66259,-13.9331 h 5.04639 v -7.45853 c -2.85218,-1.60946 -7.61003,-2.37828 -9.6167,-0.19043 -1.32865,3.45206 1.66682,7.03466 4.57031,7.64896 z" />
      </g>
      <path
         d="m 80.128913,105.01455 2.872113,-0.18066 3.034686,0.32516 2.872114,-1.11995 2.727605,0.14452 -1.318642,-1.1922 -2.528902,-0.50577 -2.113446,-1.93285 -2.239888,-1.300587 2.420521,0.794797 2.438591,1.30063 h 2.727606 l 1.408959,0.46964 -1.15607,-2.565067 -2.294078,-1.752201 -1.372834,-2.745628 -1.643792,-2.366342 2.149571,1.932797 1.914747,2.420516 2.799857,1.192202 1.806362,1.96895 -0.07225,-1.860585 -1.372839,-2.095358 -0.180638,-2.691505 -0.61416,-2.601112 1.228326,2.34825 0.758672,2.619208 1.932809,1.878609 0.61416,1.499314 1.047688,-2.691492 -0.469653,-2.79982 1.047685,-3.034724 0.541909,-2.872101 0.07226,2.872101 -0.325146,3.034724 1.13801,2.872093 -0.180637,2.763742 1.228321,-1.354815 0.57804,-2.456605 1.82442,-2.149598 1.3367,-2.167631 -0.79479,2.420516 -1.24639,2.43862 -0.0722,2.691468 -0.18064,0.686407 -0.32514,0.794817 2.61922,-1.228338 1.62572,-2.25797 2.87212,-1.372814 2.34827,-1.679892 -1.91474,2.185663 -2.36634,1.806335 -1.26445,2.908286 -2.05926,1.77022 c 0.59359,0.0211 1.23933,-0.0126 1.77025,-0.0722 l 2.29407,-1.37283 2.74567,-0.25289 2.54697,-0.505793 -2.36634,1.119933 -2.67341,0.86709 -1.86055,1.82441 -1.3367,0.83093 2.58309,0.83088 2.85405,-0.43347 2.9805,1.01152 2.87211,0.54193 -2.87211,0.19869 -3.05275,-0.3793 -2.87212,1.13796 -2.67341,-0.14448 1.26445,1.1922 2.43858,0.50578 2.16764,1.93282 2.18569,1.30064 -2.3302,-0.79487 -2.45665,-1.28251 h -2.25795 l -2.02313,-0.43359 1.26446,2.51097 2.31214,1.66186 1.42702,2.87209 1.55348,2.34824 -2.09538,-1.91469 -1.93281,-2.43862 -2.85405,-1.22834 -1.82442,-1.98697 0.0723,1.73408 1.40896,2.07733 c 0.29813,0.95221 0.16257,1.97606 0.16257,2.96247 l 0.61416,2.43852 -1.138,-2.25796 -0.75868,-2.60113 -1.98699,-2.00502 -0.722551,-1.409 -0.885116,2.72764 0.433525,2.85401 -1.011557,2.9444 -0.54191,2.79986 -0.07225,-2.87214 0.25289,-3.05277 -1.047688,-2.8721 0.03614,-2.63726 -1.156074,1.3367 -0.523844,2.43862 -1.842486,2.16763 -1.372833,2.18564 0.758668,-2.43858 1.300581,-2.34824 v -2.36637 l 0.722543,-1.98704 -1.300577,0.61418 -1.408964,0.68648 c -0.590611,0.71589 -1.115531,1.4782 -1.643788,2.23988 -0.951354,0.47564 -1.902699,0.95136 -2.854053,1.42703 l -2.474711,1.62572 2.005058,-2.16763 c 0.794593,-0.59289 1.569486,-1.21116 2.34827,-1.82448 l 1.228325,-2.85407 2.077316,-1.75214 h -1.73411 l -2.763731,1.49931 -2.294079,0.0722 -2.492777,0.6142 2.34827,-1.13806 2.583093,-0.86702 1.914747,-1.91476 1.427024,-0.61419 -2.619224,-0.95734 -2.872113,0.43349 -2.96243,-1.04763 z m 2.872113,0.0722 c 1.1656,0.33823 2.296512,0.80147 3.486279,1.04773 l 2.492777,-0.86711 2.619224,0.86711 0.28902,1.64383 -1.752175,0.54186 -1.914742,1.80633 -2.619219,0.61418 2.691475,-0.36124 2.167631,-1.73411 1.752175,-0.0723 0.975431,1.4812 -2.348269,1.5716 -1.318642,2.85406 -2.528908,1.57153 2.781797,-1.39094 1.571532,-2.70954 2.420525,-1.21028 1.427024,0.95744 -1.065748,2.27602 0.07225,2.00502 -1.44509,2.23991 1.734104,-2.16763 0.144514,-2.18569 1.174133,-1.91479 1.806361,0.54191 -0.505783,2.69145 1.119948,2.85411 -0.614165,2.98048 0.939304,-2.98048 -0.758666,-2.94439 0.867056,-2.60117 1.571521,-0.28903 0.50579,1.58964 1.91474,2.00507 0.50578,2.60118 -0.25289,-2.67345 -1.80636,-2.2941 v -1.55349 l 1.37283,-0.93927 1.67992,2.23988 2.74567,1.30061 1.67991,2.54698 -1.39089,-2.79987 -2.70955,-1.48122 -1.21026,-2.51089 0.95737,-1.33671 2.02313,0.86702 2.25795,0.0357 2.16763,1.46317 -2.09538,-1.75219 -2.65535,-0.3612 -1.44509,-1.11995 0.36128,-1.64383 2.78179,0.52385 2.87212,-1.13798 2.94436,0.61413 -3.37789,-0.93931 -2.54697,0.86709 -2.60116,-0.86709 -0.14451,-1.66182 1.55347,-0.43354 1.89668,-2.00508 2.70954,-0.43352 -2.78179,0.25293 -2.07732,1.75215 -1.66185,0.18063 -1.06575,-1.57153 2.36633,-1.661882 1.1922,-2.799903 2.54697,-1.625724 -2.69148,1.372862 -1.55347,2.79988 -2.47471,1.192207 -1.37284,-1.119934 0.86705,-1.372837 v -2.691518 l 1.49929,-2.29405 -1.75218,2.11339 -0.25289,2.799881 -1.04768,1.228338 -1.752173,-0.397385 0.451591,-2.69147 -1.138008,-2.872165 0.686417,-2.926278 -0.93931,2.926278 0.758671,2.980528 -0.867055,2.583107 -1.625721,0.289023 -0.433528,-1.679929 -1.932807,-1.914745 -0.541909,-2.691505 0.28902,2.799868 1.607661,2.131494 0.180638,1.788338 -1.463154,0.794821 -1.625722,-2.276021 -2.727606,-1.246454 -1.625728,-2.492742 1.372834,2.673401 2.69148,1.571566 1.156069,2.42054 -0.975431,1.39089 -1.372838,-0.84898 c -0.986987,-0.0868 -1.866035,0.0701 -2.799857,0 l -2.257953,-1.48123 2.185696,1.73411 2.872114,0.36125 1.1922,1.13806 -0.433527,1.62567 -2.763732,-0.50577 -2.872118,1.11998 -2.96243,-0.68648 z m 9.645972,-1.22833 1.408959,-1.01155 2.763732,1.01155 0.686417,1.58958 -1.264452,-1.48115 c -0.609607,-0.37831 -1.35599,-0.48869 -2.041189,-0.68643 z m 0.975432,0.5419 1.463155,-0.25284 1.300576,0.86705 -0.939304,-0.18066 -0.52385,0.68648 -0.614161,-0.61421 0.180633,-0.25293 z m 2.583093,5.401 1.481221,-0.25284 0.469651,-0.25288 0.289015,0.18066 0.180639,-0.18066 0.397402,0.25288 1.535399,0.25284 z m 0.867054,0.0724 0.794798,0.25284 h 1.119941 l 0.77674,-0.25284 -0.848987,0.54186 h -0.867056 z m 0,-1.84247 0.361272,-0.65034 -0.108377,0.65034 0.325145,0.46961 z m 0.722548,0.46961 v -0.43352 l 0.397397,0.50577 z m 0.794798,0.0722 0.325146,-0.50577 0.07225,0.43352 z m 0.144507,-2.3664 0.957371,-2.60113 2.962429,-0.75865 1.21026,1.01154 -1.28251,-0.50577 -2.42053,0.50577 -1.318638,2.27606 0.776734,1.64383 -0.361272,0.61414 0.108386,-0.61414 z m 1.138002,-1.19213 1.300588,-0.97545 1.48121,0.36125 -0.86705,0.18066 0.0722,0.25288 -0.50578,0.61414 -0.50578,-0.7225 z"
         id="path3"
         style="fill:#ffffff;stroke-width:0.39302894" />
    </g>
  </g>
</svg>
