<?xml version="1.0" encoding="UTF-8" standalone="no"?>
<svg
   xmlns:dc="http://purl.org/dc/elements/1.1/"
   xmlns:cc="http://creativecommons.org/ns#"
   xmlns:rdf="http://www.w3.org/1999/02/22-rdf-syntax-ns#"
   xmlns:svg="http://www.w3.org/2000/svg"
   xmlns="http://www.w3.org/2000/svg"
   version="1.1"
   width="200"
   height="200"
   viewBox="-36 956 222.72727 200"
   id="logo">
  <metadata
     id="metadata34">
    <rdf:RDF>
      <cc:Work
         rdf:about="">
        <dc:format>image/svg+xml</dc:format>
        <dc:type
           rdf:resource="http://purl.org/dc/dcmitype/StillImage" />
        <dc:title></dc:title>
      </cc:Work>
    </rdf:RDF>
  </metadata>
  <defs
     id="defs32" />
  <rect
     id="rect51"
     width="222.72726"
     height="222.72726"
     x="-35.999996"
     y="944.63635"
     style="fill:#83a9d3;stroke-width:1.02692735" />
  <g
     transform="matrix(0.5416757,0,0,0.5416757,-65.85034,590.41739)"
     id="g27"
     style="fill:#ffffff">
    <path
       id="path5"
       d="m 93.501679,972.18359 c 5.047378,-0.2249 9.466221,1.99976 9.299291,7.01416 0.72957,-3.80486 5.05587,-6.42828 8.44238,-6.56982 -1.30123,1.74983 -2.11176,3.37154 -2.60254,5.45898 -0.054,1.61169 -0.16131,3.11853 -0.1904,4.69727 v 8.95019 c 1.43438,0.35668 2.56906,0.76754 3.9038,1.20606 -1.44732,0.56561 -2.70528,1.40534 -3.71338,2.34863 v 22.59764 c 2.68195,-0.2318 4.54345,-1.9693 5.93506,-3.9038 -0.7674,4.0654 -2.71222,10.0505 -7.23632,10.1245 -3.20184,-0.4437 -4.87994,-3.0548 -5.01465,-5.8398 v -10.3467 H 86.741425 c -0.550131,0.063 -1.068523,0.3701 -1.555176,0.9204 -1.949508,3.2185 2.052564,2.723 3.967285,3.2056 1.139315,0.142 1.896607,2.5697 2.666016,4.0625 1.984476,3.3042 8.32195,-2.4247 10.31494,-4.6656 -1.2642,3.9386 -3.290243,6.5195 -5.458983,9.6167 -1.200243,1.6427 -2.843075,2.838 -4.729004,2.8565 -1.483047,-0.3077 -2.278775,-1.5135 -2.983399,-2.5391 -1.456432,-2.1207 -3.81416,-3.6714 -5.935058,-4.8559 -0.575343,2.6716 -0.265081,5.1864 0.793457,7.395 -3.110351,-0.8041 -5.088704,-2.6872 -5.935059,-5.6494 -0.685134,-2.3591 -0.188482,-4.9279 0.729981,-6.8238 1.012648,-1.6414 2.234767,-2.9842 3.649902,-3.7133 3.960612,-6.155 7.278449,-12.68258 10.791016,-19.10648 -3.553645,-0.7703 -7.141737,0.54962 -8.696289,3.52295 -2.603668,-8.49363 5.954177,-10.2789 12.060547,-10.31494 l 1.428222,-2.95166 c -6.540677,-1.04256 -14.355549,0.009 -17.741699,5.45899 -3.165622,5.7775 -1.872352,13.05681 3.364258,16.66264 -18.547242,-10.48046 -3.99385,-28.32261 10.029297,-28.81841 z m -3.237309,29.32621 h 12.25098 v -19.48736 h -2.06299 z" />
    <path
       id="path7"
       d="m 121.43136,1001.4463 v -3.11036 l 8.50586,-8.60108 c 2.19031,-1.74424 5.11296,-1.76096 6.85547,0.19043 l 6.47461,7.01416 -4.79248,4.50685 -4.79248,-5.26857 c -0.35604,-0.98438 -1.09986,-1.26022 -1.96777,-1.52343 -1.24666,0.47435 -1.49208,2.21307 -1.42823,3.26904 v 14.63136 c 0.99031,2.5984 3.03336,3.3779 5.39551,4.6973 2.35056,-0.136 3.88235,-1.2278 4.79248,-3.1421 l 2.79297,1.5551 -10.60059,12.2828 -7.52197,-7.0142 h -3.396 v -3.3008 h 2.79297 v -16.1865 z" />
    <path
       id="path9"
       d="m 147.42501,997.92334 v -2.72949 l 7.39502,-7.20459 6.25245,6.2207 5.99853,-6.03027 6.28418,6.2207 5.90332,-6.2207 7.61719,7.01416 v 2.91992 h -2.9834 v 22.62943 l 5.20508,-3.4912 1.4917,1.9042 -7.99805,7.9981 -4.98291,-5.0464 v -23.99413 h -5.93506 v 22.81983 h 2.91992 v 2.7295 l -4.41162,3.4912 -4.63379,-4.856 v -24.37496 h -6.09375 v 22.81986 h 2.79297 v 2.7295 l -4.50683,3.6816 -7.36329,-6.4111 v -3.3008 h 2.79297 v -19.51906 z" />
    <path
       id="path11"
       d="m 193.47726,996.17773 7.42676,-8.3789 4.60205,6.98242 7.20459,-6.60156 c 3.90831,2.70928 6.50393,7.11669 6.91894,11.48926 v 17.36085 c -1.37302,4.1051 -3.74617,7.467 -6.91894,9.9341 -2.32995,-2.3689 -4.60902,-4.3496 -7.39502,-6.2207 l -0.19043,10.9179 3.396,2.92 -1.14258,2.3486 -4.66553,-3.3008 h -6.12549 v -2.9517 l 3.01514,-0.5712 v -12.4732 l -3.01514,-0.9839 v -2.1582 l 3.01514,-0.3808 v -20.09037 l -4.79248,4.31641 z m 11.83838,18.12257 4.79248,3.5229 c 1.49946,-1.9964 2.6589,-3.5645 3.93555,-5.4589 v -8.1885 c -0.0914,-3.724 -1.48269,-7.10045 -4.25293,-9.17238 l -4.4751,3.90381 z" />
    <path
       id="path13"
       d="m 223.75558,1014.4272 c 0.47963,-3.9038 -0.79806,-8.5459 0.47608,-12.2192 0.40201,-1.2272 1.13199,-2.26398 2.18994,-3.11034 l 10.66406,-10.91797 c 5.37655,1.49032 7.40919,6.86334 7.87109,11.17187 v 15.61524 c -2.27725,4.832 -5.47015,8.8973 -9.6167,11.6797 h -2.18994 l -6.72851,-6.4746 c -1.80659,-1.6169 -2.53334,-3.5553 -2.66602,-5.7447 z m 6.18897,-0.7934 c 1.82296,2.8973 5.51043,8.2563 8.60107,5.2051 -0.0464,-4.5414 -0.0843,-9.4983 0.25391,-13.8379 -0.22909,-3.3691 -2.90757,-6.88614 -5.90332,-6.95071 -2.04256,0.7301 -3.18515,2.43911 -3.20557,4.41161 -0.26792,3.5224 -0.43925,7.4201 0.25391,11.1719 z" />
    <path
       id="path15"
       d="m 248.8923,1001.4463 v -3.11036 l 8.50586,-8.60108 c 2.19031,-1.74424 5.11296,-1.76096 6.85547,0.19043 l 6.47461,7.01416 -4.79248,4.50685 -4.79248,-5.26857 c -1.74125,-2.78866 -3.52876,-0.44999 -3.396,1.74561 v 14.63136 c 0.8156,2.4813 3.43068,3.6148 5.39551,4.6973 2.16649,0.039 3.95441,-1.4188 4.79248,-3.1421 l 2.79297,1.5551 -10.60059,12.2828 -7.52197,-7.0142 h -3.396 v -3.3008 h 2.79297 v -16.1865 z" />
    <path
       id="path17"
       d="m 274.88595,997.92334 v -2.72949 l 7.39502,-7.20459 6.25244,6.2207 5.99854,-6.03027 6.28418,6.2207 5.90332,-6.2207 7.61719,7.01416 v 2.91992 h -2.9834 v 22.62943 l 5.20508,-3.4912 1.49169,1.9042 -7.99804,7.9981 -4.98291,-5.0464 V 998.11377 H 299.134 v 22.81983 h 2.91992 v 2.7295 l -4.41162,3.4912 -4.63379,-4.856 v -24.37496 h -6.09375 v 22.81986 h 2.79297 v 2.7295 l -4.50684,3.6816 -7.36328,-6.4111 v -3.3008 h 2.79297 v -19.51906 z" />
    <path
       id="path19"
       d="m 320.68429,988.62402 h 2.22168 l 10.0293,10.91797 -1.23779,2.34861 -5.3003,-3.90378 c -0.30918,8.90908 -0.77701,19.39998 9.58496,19.51908 v -21.86772 c 0.50827,-2.99932 2.06165,-5.5396 4.4751,-7.01416 l 7.52197,6.76026 v 2.60254 h -5.99853 v 24.43848 c 3.53919,4.7594 3.76793,9.5939 1.7456,14.314 -2.52579,1.4081 -5.80816,1.3266 -8.60107,1.333 -3.68559,-0.094 -6.88066,-2.0447 -8.72803,-4.729 v -5.459 h 2.79297 c 1.65806,4.8996 10.26925,8.3936 11.80664,5.2051 0.32679,-2.7668 -0.85425,-6.3256 -3.04687,-7.9029 -7.18263,-3.9116 -16.81905,-10.1638 -17.26563,-18.3447 0.17353,-6.404 -0.64451,-11.99433 0,-18.21778 z" />
    <path
       id="path21"
       d="m 352.10521,1004.5566 c 1.36878,-5.2071 4.68078,-8.75549 8.85498,-11.17183 l -4.41162,-5.20508 -4.25293,-0.25391 v -5.99853 l 5.20508,-3.64991 14.12353,14.59961 3.45948,-2.34863 1.7456,2.34863 -3.45947,2.85645 -0.0635,17.9004 c 0.0941,2.022 -0.48648,4.047 -1.93603,5.2051 l -8.66455,8.601 -9.14063,-8.8549 c -0.63477,-0.8464 -1.05794,-1.6293 -1.26953,-2.3487 -0.39413,-3.8454 -0.19041,-7.6965 -0.19041,-11.6797 z m 4.44334,4.1578 c 2.65222,4.1554 6.68894,7.1771 11.17187,8.3154 v -15.0757 c 0,-1.6081 -0.16927,-2.81413 -0.50781,-3.61816 -1.44742,-1.64 -2.87224,-2.79378 -4.95117,-3.68164 -2.11958,2.08881 -3.93808,3.74221 -5.45898,6.5381 -0.31136,2.8572 -0.4828,4.7915 -0.25391,7.522 z" />
    <path
       id="path23"
       d="m 380.95529,997.92334 v -2.12647 l 7.01416,-7.61718 c 3.35462,1.97369 4.23776,4.73263 4.25293,8.18847 v 15.01224 c 0.491,4.8741 4.65664,6.4671 8.88672,5.8716 v -19.13823 h -2.91993 v -1.74561 l 7.20459,-8.18847 h 1.11084 v 6.82373 h 3.11036 v 3.11035 h -2.91993 v 19.51903 h 5.71289 v 2.9199 l -7.01416,6.8238 -5.8081,-6.2525 -5.90332,6.0303 c -4.77601,-3.0173 -7.33713,-7.1033 -7.39502,-12.6636 v -16.56736 z" />
    <path
       id="path25"
       d="m 416.05783,1020.1719 v -2.8565 h 6.18896 c 0.0163,-4.4263 1.82484,-7.2505 5.64942,-9.0136 -5.06564,-1.7923 -9.34882,-4.662 -9.3628,-10.12455 3.01767,-7.34531 15.91689,-7.83771 19.2334,-3.04688 -0.36443,-2.43026 0.33366,-3.72422 1.4917,-5.74463 h 2.72949 l 4.69727,-2.5708 v 3.396 l -2.91992,1.77734 v 25.32712 h 2.91992 v 3.1104 l -7.42676,6.2207 c -0.71649,-3.9793 -1.4917,-7.895 -1.4917,-11.9336 l -5.64941,-3.6817 c -4.16446,4.3379 -6.3629,10.2404 -6.44287,15.8692 h -2.7295 z m 16.66259,-13.9331 h 5.04639 v -7.45853 c -2.85218,-1.60946 -7.61003,-2.37828 -9.6167,-0.19043 -1.32865,3.45206 1.66682,7.03466 4.57031,7.64896 z" />
  </g>
  <path
     d="m -1.00858,1029.0659 12.08878,-0.7604 12.773052,1.3686 12.088781,-4.7139 11.480545,0.6083 -5.55019,-5.018 -10.6442,-2.1288 -8.895533,-8.1354 -9.42773,-5.4742 10.188018,3.3453 10.264077,5.4744 h 11.480546 l 5.930334,1.9767 -4.865919,-10.7964 -9.655821,-7.37505 -5.778281,-11.5564 -6.918755,-9.95998 9.047587,8.13518 8.059208,10.188 11.784652,5.018 7.603009,8.28735 -0.30411,-7.83124 -5.778302,-8.8194 -0.760309,-11.3286 -2.585012,-10.94813 5.170046,9.88383 3.193268,11.0243 8.135229,7.9071 2.58501,6.31064 4.40974,-11.32854 -1.97678,-11.7845 4.40973,-12.77321 2.28091,-12.08873 0.30413,12.08873 -1.36855,12.77321 4.78991,12.0887 -0.76031,11.63264 5.17002,-5.70244 2.433,-10.3399 7.67901,-9.0477 5.62622,-9.1236 -3.3453,10.188 -5.24608,10.2642 -0.30411,11.32844 -0.76033,2.8891 -1.36852,3.3454 11.02434,-5.1701 6.84272,-9.50384 12.08878,-5.7782 9.88391,-7.0707 -8.05918,9.1995 -9.95995,7.6029 -5.3221,12.24104 -8.66745,7.4509 c 2.4984,0.089 5.21634,-0.053 7.45098,-0.304 l 9.6558,-5.7783 11.55658,-1.0644 10.72024,-2.1289 -9.95995,4.7138 -11.25246,3.6496 -7.83109,7.679 -5.62621,3.4974 10.87229,3.4972 12.01274,-1.8245 12.54499,4.2575 12.08878,2.281 -12.08878,0.8363 -12.84909,-1.5965 -12.0888,4.7897 -11.25242,-0.6081 5.3221,5.018 10.26404,2.1288 9.12362,8.1353 9.19962,5.4744 -9.80787,-3.3456 -10.34008,-5.3981 h -9.50374 l -8.51539,-1.825 5.3221,10.5687 9.73186,6.9948 6.00637,12.0887 6.53859,9.8838 -8.81948,-8.059 -8.13524,-10.2642 -12.01275,-5.1701 -7.67902,-8.3632 0.30413,7.2988 5.93033,8.7435 c 1.25483,4.0079 0.68426,8.3173 0.68426,12.4691 l 2.58501,10.2638 -4.78986,-9.5038 -3.19327,-10.9482 -8.36331,-8.4392 -3.04122,-5.9305 -3.72547,11.4807 1.82471,12.0126 -4.25766,12.393 -2.28091,11.7847 -0.30411,-12.0889 1.06442,-12.8492 -4.40974,-12.0887 0.15212,-11.1003 -4.86594,5.6262 -2.20487,10.2642 -7.75506,9.1236 -5.77828,9.1994 3.193247,-10.264 5.474174,-9.8838 v -9.9601 l 3.041194,-8.3635 -5.474153,2.5851 -5.930356,2.8894 c -2.485893,3.0132 -4.695289,6.2218 -6.918734,9.4277 -4.004268,2.002 -8.008495,4.0043 -12.012764,6.0064 l -10.416109,6.8427 8.439331,-9.1236 c 3.344454,-2.4955 6.605995,-5.0978 9.883912,-7.6793 l 5.170046,-12.0128 8.743459,-7.3748 h -7.298899 l -11.632599,6.3106 -9.655821,0.304 -10.492146,2.5852 9.883911,-4.7901 10.87229,-3.6493 8.059208,-8.0593 6.006372,-2.5851 -11.024365,-4.0295 -12.08878,1.8246 -12.468924,-4.4095 z m 12.08878,0.304 c 4.906032,1.4236 9.666061,3.3734 14.673814,4.4099 l 10.492146,-3.6497 11.024365,3.6497 1.21649,6.9189 -7.374936,2.2807 -8.059187,7.6029 -11.024343,2.5851 11.328471,-1.5205 9.123602,-7.2989 7.374937,-0.3042 4.105609,6.2344 -9.883911,6.6149 -5.550191,12.0128 -10.64422,6.6146 11.708636,-5.8545 6.614606,-11.4045 10.188039,-5.0941 6.006373,4.0299 -4.485755,9.5798 0.304107,8.4392 -6.082409,9.4278 7.298878,-9.1236 0.608259,-9.1996 4.94195,-8.0594 7.60301,2.2809 -2.12885,11.3284 4.71388,12.013 -2.58503,12.5449 3.95355,-12.5449 -3.19324,-12.393 3.64945,-10.9484 6.61458,-1.2165 2.12888,6.6908 8.05918,8.4394 2.12883,10.9484 -1.06441,-11.2526 -7.60301,-9.6559 v -6.5387 l 5.77826,-3.9534 7.07081,9.4277 11.55656,5.4743 7.07081,10.7203 -5.8543,-11.7847 -11.40455,-6.2345 -5.09399,-10.5684 4.02958,-5.6262 8.51537,3.6493 9.50376,0.1502 9.12361,6.1585 -8.81948,-7.375 -11.17642,-1.5203 -6.08243,-4.7139 1.52062,-6.9189 11.70862,2.2049 12.0888,-4.7898 12.39288,2.5849 -14.21761,-3.9536 -10.72023,3.6496 -10.94835,-3.6496 -0.60824,-6.9946 6.53859,-1.8248 7.98317,-8.4394 11.40451,-1.8247 -11.70863,1.0646 -8.74346,7.3748 -6.99477,0.7603 -4.48578,-6.6146 9.95997,-6.9949 5.01795,-11.78485 10.72026,-6.8427 -11.32849,5.7784 -6.53859,11.78475 -10.41611,5.018 -5.77828,-4.7138 3.64943,-5.7783 v -11.32865 l 6.31052,-9.6557 -7.37494,8.8953 -1.06444,11.78475 -4.40971,5.1701 -7.37492,-1.6726 1.90076,-11.32845 -4.7899,-12.089 2.88914,-12.31676 -3.95357,12.31676 3.19326,12.5451 -3.64945,10.87235 -6.84269,1.2165 -1.82473,-7.07085 -8.135221,-8.0592 -2.280906,-11.3286 1.21649,11.7847 6.766677,8.9715 0.76031,7.52715 -6.158444,3.3454 -6.842696,-9.5798 -11.480546,-5.24635 -6.842718,-10.492 5.778281,11.2524 11.328493,6.61475 4.865918,10.1881 -4.105609,5.8543 -5.778302,-3.5734 c -4.154249,-0.3652 -7.854179,0.2949 -11.784653,0 l -9.503767,-6.2345 9.199639,7.2989 12.088781,1.5205 5.017993,4.7901 -1.824725,6.8425 -11.632599,-2.1288 -12.088802,4.714 -12.468924,-2.8894 z m 40.600083,-5.1701 5.930335,-4.2576 11.632602,4.2576 2.88914,6.6906 -5.3221,-6.2342 c -2.56585,-1.5923 -5.70739,-2.0569 -8.591408,-2.8892 z m 4.10561,2.2809 6.158447,-1.0642 5.47415,3.6494 -3.95355,-0.7604 -2.20489,2.8894 -2.585017,-2.5852 0.760288,-1.0646 z m 10.872287,22.7329 6.23449,-1.0642 1.97677,-1.0644 1.21647,0.7604 0.76031,-0.7604 1.67267,1.0644 6.46254,1.0642 z m 3.64945,0.3045 3.34532,1.0642 h 4.71385 l 3.26932,-1.0642 -3.57341,2.2807 h -3.64945 z m 0,-7.755 1.5206,-2.7373 -0.45616,2.7373 1.36854,1.9766 z m 3.04122,1.9766 v -1.8247 l 1.67265,2.1288 z m 3.34532,0.3041 1.36854,-2.1288 0.30409,1.8247 z m 0.60823,-9.9602 4.0296,-10.9482 12.46894,-3.1932 5.09399,4.2576 -5.39812,-2.1288 -10.18803,2.1288 -5.5502,9.58 3.26929,6.9189 -1.5206,2.5849 0.4562,-2.5849 z m 4.78988,-5.0177 5.4742,-4.1057 6.23446,1.5205 -3.64945,0.7604 0.30413,1.0644 -2.12885,2.5849 -2.12885,-3.041 z"
     id="path3"
     style="fill:#ffffff;stroke-width:1.65426648" />
</svg>
