<?xml version="1.0" encoding="UTF-8" standalone="no"?>
<svg
   xmlns:dc="http://purl.org/dc/elements/1.1/"
   xmlns:cc="http://creativecommons.org/ns#"
   xmlns:rdf="http://www.w3.org/1999/02/22-rdf-syntax-ns#"
   xmlns:svg="http://www.w3.org/2000/svg"
   xmlns="http://www.w3.org/2000/svg"
   xmlns:sodipodi="http://sodipodi.sourceforge.net/DTD/sodipodi-0.dtd"
   xmlns:inkscape="http://www.inkscape.org/namespaces/inkscape"
   version="1.1"
   width="600"
   height="600"
   viewBox="-36 956 668.18181 600"
   id="logo"
   sodipodi:docname="logo.svg"
   inkscape:version="0.92.3 (unknown)">
  <sodipodi:namedview
     pagecolor="#ffffff"
     bordercolor="#666666"
     borderopacity="1"
     objecttolerance="10"
     gridtolerance="10"
     guidetolerance="10"
     inkscape:pageopacity="0"
     inkscape:pageshadow="2"
     inkscape:window-width="1301"
     inkscape:window-height="744"
     id="namedview19"
     showgrid="false"
     inkscape:zoom="0.59"
     inkscape:cx="597.04741"
     inkscape:cy="258.84627"
     inkscape:window-x="65"
     inkscape:window-y="24"
     inkscape:window-maximized="1"
     inkscape:current-layer="logo" />
  <metadata
     id="metadata34">
    <rdf:RDF>
      <cc:Work
         rdf:about="">
        <dc:format>image/svg+xml</dc:format>
        <dc:type
           rdf:resource="http://purl.org/dc/dcmitype/StillImage" />
        <dc:title></dc:title>
      </cc:Work>
    </rdf:RDF>
  </metadata>
  <defs
     id="defs32" />
  <rect
     id="rect51"
     width="670.06934"
     height="670.06934"
     x="-36.943764"
     y="920.96533"
     style="fill:#83a9d3;stroke-width:3.08948493" />
  <path
     d="m 33.618834,1245.3367 41.862672,-2.6333 44.232264,4.7395 41.86267,-16.324 39.7564,2.1063 -19.21996,-17.3767 -36.86018,-7.3719 -30.80466,-28.1726 -32.647627,-18.9567 35.280457,11.5847 35.54384,18.9573 h 39.75639 l 20.53637,6.8452 -16.85036,-37.3872 -33.43749,-25.5396 -20.00982,-40.019 -23.95921,-34.4906 31.33122,28.1716 27.90852,35.2804 40.80949,17.3766 26.32873,28.6991 -1.05311,-27.1193 -20.00989,-30.5411 -2.6329,-39.2299 -8.95173,-37.9128 17.90354,34.2271 11.05808,38.1763 28.17178,27.3816 8.95172,21.8536 15.27065,-39.2299 -6.84546,-40.8091 15.27061,-44.2327 7.89863,-41.86235 1.05318,41.86235 -4.73919,44.2327 16.58715,41.8621 -2.63289,40.2834 17.90345,-19.7473 8.42532,-35.8062 26.59189,-31.3315 19.48324,-31.5944 -11.58455,35.2804 -18.16684,35.5439 -1.0531,39.2296 -2.63296,10.005 -4.73912,11.585 38.17657,-17.904 23.69592,-32.9109 41.86269,-20.0097 34.22729,-24.4854 -27.90838,31.8574 -34.49069,26.3284 -18.43007,42.39 -30.01486,25.8018 c 8.65181,0.3081 18.06385,-0.1835 25.80228,-1.0526 l 33.43745,-20.01 40.01966,-3.686 37.12349,-7.3719 -34.49065,16.3233 -38.96652,12.6383 -27.11857,26.5919 -19.48324,12.1113 37.65006,12.1106 41.59933,-6.3181 43.44249,14.7436 41.86268,7.8988 -41.86268,2.8962 -44.49555,-5.5287 -41.86274,16.5864 -38.96643,-2.1057 18.4301,17.3767 35.54371,7.372 31.59452,28.1722 31.8577,18.9573 -33.96402,-11.5853 -35.80705,-18.6935 h -32.91085 l -29.48825,-6.3199 18.43012,36.5987 33.70079,24.2224 20.79966,41.8627 22.64274,34.2268 -30.54128,-27.9078 -28.17184,-35.544 -41.59938,-17.9037 -26.59192,-28.9614 1.05318,25.2754 20.53634,30.2779 c 4.34541,13.8793 2.36953,28.8026 2.36953,43.1801 l 8.95172,35.5427 -16.58695,-32.9112 -11.0581,-37.9128 -28.96161,-29.2247 -10.53155,-20.5367 -12.90105,39.757 6.31885,41.5988 -14.744,42.9162 -7.89865,40.8096 -1.05311,-41.8629 3.68602,-44.4962 -15.27065,-41.8621 0.52678,-38.44 -16.85044,19.4832 -7.63532,35.5443 -26.85527,31.5947 -20.00982,31.8568 11.05801,-35.5436 18.95672,-34.2268 v -34.4913 l 10.53146,-28.9623 -18.95665,8.952 -20.53644,10.0056 c -8.60848,10.4349 -16.25948,21.5458 -23.95913,32.6477 -13.86653,6.9327 -27.73291,13.8666 -41.59943,20.7997 l -36.07032,23.6959 29.22486,-31.5944 c 11.58163,-8.6418 22.87614,-17.6531 34.22736,-26.5928 l 17.90353,-41.5997 30.27804,-25.5386 h -25.27562 l -40.28294,21.8535 -33.43749,1.0527 -36.333634,8.9523 34.227354,-16.5878 37.65004,-12.6374 27.90852,-27.9087 20.79969,-8.9523 -38.17667,-13.9536 -41.86268,6.3184 -43.179078,-15.2698 z m 41.862672,1.0526 c 16.989277,4.93 33.472954,11.682 50.814484,15.2714 l 36.33363,-12.6389 38.17666,12.6389 4.21263,23.9598 -25.53893,7.8975 -27.90845,26.3284 -38.17659,8.9523 39.22977,-5.2654 31.59445,-25.2757 25.53893,-1.0536 14.21746,21.5897 -34.22735,22.9068 -19.21995,41.5994 -36.86026,22.9062 40.54626,-20.2738 22.90596,-39.4931 35.28052,-17.6405 20.79969,13.9551 -15.53388,33.1741 1.0531,29.2247 -21.063,32.6479 25.27555,-31.5944 2.10636,-31.8579 17.11366,-27.909 26.32874,7.8987 -7.37207,39.2293 16.32386,41.6003 -8.95179,43.4424 13.69089,-43.4424 -11.05799,-42.9159 12.63782,-37.9137 22.90585,-4.2127 7.37219,23.1697 27.90842,29.2253 7.37201,37.9137 -3.68599,-38.9673 -26.32874,-33.4377 v -22.643 l 20.00976,-13.6904 24.48574,32.6474 40.01966,18.957 24.48576,37.124 -20.27311,-40.81 -39.49321,-21.5897 -17.64016,-36.5975 13.95417,-19.4832 29.4882,12.6374 32.91091,0.5202 31.59446,21.3265 -30.54126,-25.5393 -38.70327,-5.2645 -21.06305,-16.324 5.26579,-23.9598 40.54624,7.6352 41.86271,-16.5863 42.91574,8.9511 -49.23468,-13.6912 -37.12343,12.6386 -37.91346,-12.6386 -2.1063,-24.2216 22.64275,-6.3193 27.6452,-29.2252 39.49306,-6.3187 -40.54621,3.6866 -30.27804,25.5386 -24.22246,2.6327 -15.53395,-22.9059 34.49074,-24.223 17.37686,-40.8103 37.12352,-23.6956 -39.22984,20.0099 -22.64269,40.8103 -36.07033,17.377 -20.00981,-16.3237 12.63776,-20.01 v -39.2302 l 21.85291,-33.4371 -25.53893,30.8038 -3.6861,40.8096 -15.27053,17.9041 -25.53889,-5.7922 6.58223,-39.2299 -16.58713,-41.8633 10.0049,-42.652 -13.69095,42.652 11.05806,43.4427 -12.63782,37.6505 -23.6958,4.2127 -6.31892,-24.4862 -28.17175,-27.9085 -7.89863,-39.2299 4.21263,40.8094 23.43257,31.0676 2.6329,26.0666 -21.3263,11.5848 -23.69581,-33.1745 -39.7564,-18.1679 -23.69589,-36.333 20.00982,38.966 39.22984,22.9069 16.85036,35.2807 -14.21746,20.2732 -20.00989,-12.3745 c -14.3859,-1.2648 -27.19852,1.0211 -40.8095,0 l -32.91093,-21.5897 31.85776,25.2757 41.86267,5.2654 17.37699,16.5879 -6.31891,23.695 -40.28294,-7.372 -41.86275,16.3246 -43.179084,-10.0062 z m 140.595484,-17.9037 20.53638,-14.7436 40.28295,14.7436 10.00491,23.1692 -18.4301,-21.5885 c -8.88537,-5.514 -19.76432,-7.1232 -29.75149,-10.0053 z m 14.21747,7.8988 21.3263,-3.6854 18.95664,12.6377 -13.69089,-2.6333 -7.6354,10.0059 -8.95174,-8.9524 2.63282,-3.6866 z m 37.65003,78.7224 21.58964,-3.6851 6.84543,-3.6859 4.21254,2.6333 2.63292,-2.6333 5.79235,3.6859 22.37937,3.6851 z m 12.63781,1.0545 11.58463,3.6851 h 16.32376 l 11.32145,-3.6851 -12.3745,7.8981 h -12.6378 z m 0,-26.8549 5.26574,-9.4791 -1.57965,9.4791 4.73917,6.8446 z m 10.53155,6.8446 v -6.3187 l 5.79228,7.3716 z m 11.58464,1.053 4.73915,-7.3717 1.05305,6.3187 z m 2.10626,-34.4913 13.95424,-37.9131 43.17914,-11.0576 17.64013,14.7436 -18.69331,-7.372 -35.28051,7.372 -19.21998,33.1751 11.32135,23.9598 -5.26575,8.9511 1.57981,-8.9511 z m 16.58705,-17.376 18.95679,-14.2178 21.58954,5.2655 -12.6378,2.633 1.05318,3.686 -7.37209,8.9514 -7.37206,-10.5306 z"
     id="path3"
     style="fill:#ffffff;stroke-width:5.7286191"
     inkscape:connector-curvature="0" />
</svg>
