<?xml version="1.0" encoding="UTF-8" standalone="no"?>
<svg
   xmlns:dc="http://purl.org/dc/elements/1.1/"
   xmlns:cc="http://creativecommons.org/ns#"
   xmlns:rdf="http://www.w3.org/1999/02/22-rdf-syntax-ns#"
   xmlns:svg="http://www.w3.org/2000/svg"
   xmlns="http://www.w3.org/2000/svg"
   xmlns:xlink="http://www.w3.org/1999/xlink"
   xmlns:sodipodi="http://sodipodi.sourceforge.net/DTD/sodipodi-0.dtd"
   xmlns:inkscape="http://www.inkscape.org/namespaces/inkscape"
   viewBox="0 0 95.250004 42.333334"
   height="160"
   width="360"
   version="1.1"
   id="svg46"
   sodipodi:docname="logo2.svg"
   inkscape:version="0.92.3 (unknown)">
  <metadata
     id="metadata52">
    <rdf:RDF>
      <cc:Work
         rdf:about="">
        <dc:format>image/svg+xml</dc:format>
        <dc:type
           rdf:resource="http://purl.org/dc/dcmitype/StillImage" />
        <dc:title />
      </cc:Work>
    </rdf:RDF>
  </metadata>
  <defs
     id="defs50">
    <linearGradient
       id="SVGID_1_"
       gradientUnits="userSpaceOnUse"
       x1="-13.2109"
       y1="-21.839199"
       x2="49.616402"
       y2="86.980904">
      <stop
         offset="0"
         style="stop-color:#8C42A1"
         id="stop6" />
      <stop
         offset="0.3886"
         style="stop-color:#922C88"
         id="stop8" />
      <stop
         offset="0.7307"
         style="stop-color:#A02D6E"
         id="stop10" />
      <stop
         offset="0.8604"
         style="stop-color:#F3506F"
         id="stop12" />
      <stop
         offset="0.9851"
         style="stop-color:#FCB450"
         id="stop14" />
    </linearGradient>
    <linearGradient
       id="SVGID_2_"
       gradientUnits="userSpaceOnUse"
       x1="-41.748798"
       y1="-5.3628001"
       x2="21.078501"
       y2="103.4573">
      <stop
         offset="0"
         style="stop-color:#8C42A1"
         id="stop19" />
      <stop
         offset="0.3886"
         style="stop-color:#922C88"
         id="stop21" />
      <stop
         offset="0.7307"
         style="stop-color:#A02D6E"
         id="stop23" />
      <stop
         offset="0.8604"
         style="stop-color:#F3506F"
         id="stop25" />
      <stop
         offset="0.9851"
         style="stop-color:#FCB450"
         id="stop27" />
    </linearGradient>
    <linearGradient
       id="SVGID_3_"
       gradientUnits="userSpaceOnUse"
       x1="-34.2383"
       y1="-9.6990004"
       x2="28.589001"
       y2="99.121101">
      <stop
         offset="0"
         style="stop-color:#8C42A1"
         id="stop32" />
      <stop
         offset="0.3886"
         style="stop-color:#922C88"
         id="stop34" />
      <stop
         offset="0.7307"
         style="stop-color:#A02D6E"
         id="stop36" />
      <stop
         offset="0.8604"
         style="stop-color:#F3506F"
         id="stop38" />
      <stop
         offset="0.9851"
         style="stop-color:#FCB450"
         id="stop40" />
    </linearGradient>
    <linearGradient
       id="SVGID_4_"
       gradientUnits="userSpaceOnUse"
       x1="-13.8733"
       y1="-21.456699"
       x2="48.953999"
       y2="87.363403">
      <stop
         offset="0"
         style="stop-color:#8C42A1"
         id="stop45" />
      <stop
         offset="0.3886"
         style="stop-color:#922C88"
         id="stop47" />
      <stop
         offset="0.7307"
         style="stop-color:#A02D6E"
         id="stop49" />
      <stop
         offset="0.8604"
         style="stop-color:#F3506F"
         id="stop51" />
      <stop
         offset="0.9851"
         style="stop-color:#FCB450"
         id="stop53" />
    </linearGradient>
    <linearGradient
       id="SVGID_5_"
       gradientUnits="userSpaceOnUse"
       x1="7.0488"
       y1="-33.536098"
       x2="69.876099"
       y2="75.283997">
      <stop
         offset="0"
         style="stop-color:#8C42A1"
         id="stop58" />
      <stop
         offset="0.3886"
         style="stop-color:#922C88"
         id="stop60" />
      <stop
         offset="0.7307"
         style="stop-color:#A02D6E"
         id="stop62" />
      <stop
         offset="0.8604"
         style="stop-color:#F3506F"
         id="stop64" />
      <stop
         offset="0.9851"
         style="stop-color:#FCB450"
         id="stop66" />
    </linearGradient>
    <linearGradient
       id="SVGID_6_"
       gradientUnits="userSpaceOnUse"
       x1="8.2494001"
       y1="-34.229301"
       x2="71.076698"
       y2="74.590797">
      <stop
         offset="0"
         style="stop-color:#8C42A1"
         id="stop71" />
      <stop
         offset="0.3886"
         style="stop-color:#922C88"
         id="stop73" />
      <stop
         offset="0.7307"
         style="stop-color:#A02D6E"
         id="stop75" />
      <stop
         offset="0.8604"
         style="stop-color:#F3506F"
         id="stop77" />
      <stop
         offset="0.9851"
         style="stop-color:#FCB450"
         id="stop79" />
    </linearGradient>
    <linearGradient
       id="SVGID_7_"
       gradientUnits="userSpaceOnUse"
       x1="-18.2505"
       y1="-18.9296"
       x2="44.5769"
       y2="89.890503">
      <stop
         offset="0"
         style="stop-color:#8C42A1"
         id="stop84" />
      <stop
         offset="0.3886"
         style="stop-color:#922C88"
         id="stop86" />
      <stop
         offset="0.7307"
         style="stop-color:#A02D6E"
         id="stop88" />
      <stop
         offset="0.8604"
         style="stop-color:#F3506F"
         id="stop90" />
      <stop
         offset="0.9851"
         style="stop-color:#FCB450"
         id="stop92" />
    </linearGradient>
    <linearGradient
       id="SVGID_8_"
       gradientUnits="userSpaceOnUse"
       x1="-8.6226997"
       y1="-24.488199"
       x2="54.204601"
       y2="84.331902">
      <stop
         offset="0"
         style="stop-color:#8C42A1"
         id="stop97" />
      <stop
         offset="0.3886"
         style="stop-color:#922C88"
         id="stop99" />
      <stop
         offset="0.7307"
         style="stop-color:#A02D6E"
         id="stop101" />
      <stop
         offset="0.8604"
         style="stop-color:#F3506F"
         id="stop103" />
      <stop
         offset="0.9851"
         style="stop-color:#FCB450"
         id="stop105" />
    </linearGradient>
    <linearGradient
       id="SVGID_9_"
       gradientUnits="userSpaceOnUse"
       x1="16.7775"
       y1="-39.153"
       x2="79.604797"
       y2="69.667099">
      <stop
         offset="0"
         style="stop-color:#8C42A1"
         id="stop110" />
      <stop
         offset="0.3886"
         style="stop-color:#922C88"
         id="stop112" />
      <stop
         offset="0.7307"
         style="stop-color:#A02D6E"
         id="stop114" />
      <stop
         offset="0.8604"
         style="stop-color:#F3506F"
         id="stop116" />
      <stop
         offset="0.9851"
         style="stop-color:#FCB450"
         id="stop118" />
    </linearGradient>
    <linearGradient
       id="SVGID_10_"
       gradientUnits="userSpaceOnUse"
       x1="-42.7589"
       y1="-4.7796001"
       x2="20.068399"
       y2="104.0405">
      <stop
         offset="0"
         style="stop-color:#8C42A1"
         id="stop123" />
      <stop
         offset="0.3886"
         style="stop-color:#922C88"
         id="stop125" />
      <stop
         offset="0.7307"
         style="stop-color:#A02D6E"
         id="stop127" />
      <stop
         offset="0.8604"
         style="stop-color:#F3506F"
         id="stop129" />
      <stop
         offset="0.9851"
         style="stop-color:#FCB450"
         id="stop131" />
    </linearGradient>
    <linearGradient
       inkscape:collect="always"
       xlink:href="#SVGID_9_"
       id="linearGradient1109"
       x1="43.133663"
       y1="149.56248"
       x2="58.888737"
       y2="129.69156"
       gradientUnits="userSpaceOnUse" />
    <linearGradient
       inkscape:collect="always"
       xlink:href="#SVGID_10_"
       id="linearGradient1117"
       x1="26.089001"
       y1="234.67599"
       x2="46.826"
       y2="234.67599"
       gradientUnits="userSpaceOnUse" />
    <linearGradient
       inkscape:collect="always"
       xlink:href="#SVGID_10_"
       id="linearGradient1119"
       x1="47.959"
       y1="234.364"
       x2="63.738998"
       y2="234.364"
       gradientUnits="userSpaceOnUse" />
    <linearGradient
       inkscape:collect="always"
       xlink:href="#SVGID_10_"
       id="linearGradient1175"
       x1="63.865219"
       y1="94.757057"
       x2="76.282181"
       y2="94.757057"
       gradientUnits="userSpaceOnUse" />
  </defs>
  <sodipodi:namedview
     pagecolor="#ffffff"
     bordercolor="#666666"
     borderopacity="1"
     objecttolerance="10"
     gridtolerance="10"
     guidetolerance="10"
     inkscape:pageopacity="0"
     inkscape:pageshadow="2"
     inkscape:window-width="1301"
     inkscape:window-height="744"
     id="namedview48"
     showgrid="false"
     inkscape:zoom="1.7176471"
     inkscape:cx="203.91099"
     inkscape:cy="71.884772"
     inkscape:window-x="65"
     inkscape:window-y="24"
     inkscape:window-maximized="1"
     inkscape:current-layer="svg46" />
  <g
     id="g1646"
     transform="translate(8.6279019)">
    <g
       id="g44"
       transform="translate(-18.255959,-203.4)">
      <g
         style="stroke-width:0.26499999"
         id="g40">
        <g
           style="fill:url(#linearGradient1109);fill-opacity:1.0"
           id="g24"
           transform="translate(31.26,64.736)">
          <g
             id="g10"
             aria-label="mark"
             style="fill:url(#linearGradient1109);fill-opacity:1.0">
            <path
               inkscape:connector-curvature="0"
               id="path2"
               d="m 25.937,142.51 q 0.011,0 0.222,-0.19 0.222,-0.201 0.603,-0.402 0.381,-0.201 0.773,-0.201 0.392,0 0.688,0.254 0.307,0.254 0.402,0.646 0.328,-0.37 0.773,-0.635 0.455,-0.265 0.868,-0.265 0.36,0 0.614,0.127 0.265,0.127 0.402,0.307 0.138,0.18 0.212,0.476 0.074,0.296 0.085,0.529 0.021,0.233 0.021,0.582 v 1.979 q 0,0.349 0.148,0.508 0.148,0.159 0.519,0.19 v 0.148 h -2.222 v -0.148 q 0.37,-0.032 0.519,-0.19 0.148,-0.159 0.148,-0.508 v -2.148 q 0,-0.762 -0.169,-1.016 -0.159,-0.265 -0.656,-0.265 -0.751,0 -1.143,0.635 v 2.794 q 0,0.349 0.148,0.508 0.148,0.159 0.519,0.19 v 0.148 h -2.223 v -0.148 q 0.37,-0.032 0.519,-0.19 0.148,-0.159 0.148,-0.508 v -2.191 q 0,-0.265 -0.021,-0.434 -0.011,-0.169 -0.085,-0.381 -0.064,-0.212 -0.222,-0.317 -0.159,-0.106 -0.413,-0.106 -0.339,0 -0.688,0.169 -0.349,0.169 -0.529,0.445 v 2.815 q 0,0.349 0.148,0.508 0.148,0.159 0.519,0.19 v 0.148 h -2.223 v -0.148 q 0.37,-0.032 0.519,-0.19 0.148,-0.159 0.148,-0.508 v -2.572 q 0,-0.445 -0.127,-0.571 -0.116,-0.127 -0.54,-0.127 v -0.18 l 1.556,-0.55 v 0.698 q 0,0.095 0.042,0.095 z"
               style="fill:url(#linearGradient1109);fill-opacity:1.0" />
            <path
               inkscape:connector-curvature="0"
               id="path4"
               d="m 32.999,142.91 q 0,-0.116 0.074,-0.286 0.074,-0.18 0.243,-0.392 0.18,-0.222 0.561,-0.37 0.381,-0.148 0.91,-0.148 0.868,0 1.185,0.413 0.328,0.402 0.328,1.397 v 2.222 q 0,0.328 0.243,0.328 0.191,0 0.55,-0.243 v 0.275 q -0.159,0.19 -0.423,0.381 -0.254,0.19 -0.455,0.19 -0.381,0 -0.561,-0.233 -0.18,-0.233 -0.201,-0.582 -0.878,0.815 -1.524,0.815 -0.476,0 -0.804,-0.328 -0.318,-0.328 -0.318,-0.794 0,-0.233 0.074,-0.434 0.085,-0.212 0.201,-0.37 0.116,-0.159 0.318,-0.307 0.201,-0.159 0.37,-0.265 0.169,-0.106 0.423,-0.212 0.265,-0.116 0.423,-0.18 0.169,-0.064 0.423,-0.159 0.265,-0.095 0.37,-0.138 0,-0.889 -0.148,-1.207 -0.148,-0.328 -0.624,-0.328 -0.18,0 -0.402,0.085 -0.212,0.085 -0.296,0.212 -0.021,0.085 -0.021,0.159 0,0.053 0.011,0.212 0.011,0.148 0.011,0.243 0,0.18 -0.148,0.328 -0.138,0.148 -0.318,0.148 -0.233,0 -0.36,-0.116 -0.116,-0.127 -0.116,-0.317 z m 2.413,2.656 v -1.799 q -0.106,0.042 -0.349,0.138 -0.243,0.085 -0.392,0.148 -0.148,0.053 -0.349,0.169 -0.201,0.106 -0.318,0.233 -0.106,0.116 -0.191,0.307 -0.085,0.18 -0.085,0.413 0,0.37 0.191,0.624 0.201,0.243 0.561,0.243 0.191,0 0.519,-0.148 0.339,-0.159 0.413,-0.328 z"
               style="fill:url(#linearGradient1109);fill-opacity:1.0" />
            <path
               inkscape:connector-curvature="0"
               id="path6"
               d="m 40.644,142.28 q 0,0.466 -0.434,0.466 -0.201,0 -0.402,-0.18 -0.191,-0.19 -0.307,-0.19 -0.159,0 -0.413,0.307 -0.243,0.296 -0.243,0.519 v 2.519 q 0,0.349 0.169,0.508 0.169,0.159 0.635,0.19 v 0.148 h -2.487 v -0.148 q 0.466,-0.032 0.624,-0.19 0.169,-0.159 0.169,-0.508 v -2.307 q 0,-0.582 -0.095,-0.804 -0.085,-0.222 -0.328,-0.222 -0.148,0 -0.37,0.064 v -0.159 l 1.683,-0.571 v 0.963 q 0.212,-0.37 0.529,-0.667 0.318,-0.296 0.677,-0.296 0.593,0 0.593,0.561 z"
               style="fill:url(#linearGradient1109);fill-opacity:1.0" />
            <path
               inkscape:connector-curvature="0"
               id="path8"
               d="m 45.925,146.57 h -2.286 v -0.148 q 0.37,0 0.37,-0.19 0,-0.095 -0.085,-0.201 l -1.577,-2.074 v 1.767 q 0,0.349 0.169,0.508 0.169,0.159 0.635,0.19 v 0.148 h -2.487 v -0.148 q 0.455,-0.032 0.624,-0.19 0.169,-0.159 0.169,-0.508 v -5.281 q 0,-0.275 -0.063,-0.349 -0.063,-0.074 -0.286,-0.074 h -0.349 v -0.19 q 0.148,-0.042 0.339,-0.085 0.201,-0.042 0.328,-0.074 0.138,-0.042 0.254,-0.085 l 0.667,-0.233 v 4.434 l 1.334,-1.164 q 0.36,-0.307 0.36,-0.445 0,-0.19 -0.54,-0.19 v -0.148 h 2.17 v 0.148 q -0.318,0 -0.582,0.074 -0.265,0.074 -0.54,0.254 -0.265,0.18 -0.444,0.328 -0.169,0.148 -0.508,0.455 -0.328,0.307 -0.519,0.476 l 1.535,1.958 q 0.656,0.847 1.312,0.889 z"
               style="fill:url(#linearGradient1109);fill-opacity:1.0" />
          </g>
          <g
             id="g22"
             aria-label="eting"
             style="fill:url(#linearGradient1109);fill-opacity:1.0">
            <path
               inkscape:connector-curvature="0"
               id="path12"
               d="m 47.62,147.8 q -0.265,0.762 -0.857,1.281 -0.593,0.508 -1.355,0.508 -0.889,0 -1.45,-0.698 -0.55,-0.709 -0.55,-1.683 0,-1.143 0.593,-1.863 0.593,-0.72 1.556,-0.72 0.825,0 1.334,0.55 0.508,0.54 0.529,1.376 h -3.291 q 0.011,0.54 0.18,1.048 0.169,0.508 0.572,0.889 0.402,0.381 0.963,0.381 0.487,0 0.9,-0.317 0.423,-0.328 0.699,-0.815 z m -1.281,-1.577 q -0.032,-0.529 -0.286,-0.868 -0.243,-0.349 -0.73,-0.349 -0.995,0 -1.164,1.217 z"
               style="fill:url(#linearGradient1109);fill-opacity:1.0" />
            <path
               inkscape:connector-curvature="0"
               id="path14"
               d="m 49.973,149.01 q 0.402,0 0.698,-0.392 l 0.148,0.127 q -0.646,0.836 -1.365,0.836 -0.508,0 -0.677,-0.328 -0.169,-0.328 -0.169,-1.154 v -3.037 H 48.29 q -0.021,0 -0.085,0.011 -0.063,0 -0.095,0 -0.032,0 -0.085,-0.011 -0.042,-0.021 -0.032,-0.053 0.011,-0.032 0.021,-0.095 0.212,-0.138 0.423,-0.339 0.212,-0.212 0.349,-0.37 0.138,-0.159 0.37,-0.434 0.233,-0.286 0.36,-0.434 v 1.397 h 1.037 v 0.328 h -1.037 v 2.857 q 0,0.55 0.085,0.826 0.095,0.265 0.37,0.265 z"
               style="fill:url(#linearGradient1109);fill-opacity:1.0" />
            <path
               inkscape:connector-curvature="0"
               id="path16"
               d="m 52.739,142.8 q 0,0.222 -0.159,0.381 -0.159,0.159 -0.37,0.159 -0.233,0 -0.392,-0.159 -0.148,-0.159 -0.148,-0.381 0,-0.233 0.148,-0.392 0.159,-0.159 0.392,-0.159 0.212,0 0.37,0.159 0.159,0.159 0.159,0.392 z m 0.804,6.667 h -2.508 v -0.148 q 0.466,-0.032 0.624,-0.19 0.169,-0.159 0.169,-0.508 v -2.572 q 0,-0.455 -0.074,-0.624 -0.063,-0.169 -0.275,-0.169 -0.138,0 -0.444,0.085 v -0.148 l 1.693,-0.571 v 4 q 0,0.36 0.169,0.519 0.169,0.148 0.646,0.18 z"
               style="fill:url(#linearGradient1109);fill-opacity:1.0" />
            <path
               inkscape:connector-curvature="0"
               id="path18"
               d="m 58.913,149.47 h -2.222 v -0.148 q 0.37,-0.032 0.519,-0.19 0.148,-0.159 0.148,-0.508 v -2.275 q 0,-0.36 -0.042,-0.582 -0.042,-0.222 -0.233,-0.392 -0.191,-0.18 -0.54,-0.18 -0.55,0 -1.154,0.603 v 2.826 q 0,0.349 0.148,0.508 0.148,0.159 0.519,0.19 v 0.148 h -2.233 v -0.148 q 0.37,-0.032 0.519,-0.19 0.148,-0.159 0.148,-0.508 v -2.582 q 0,-0.497 -0.074,-0.624 -0.074,-0.138 -0.328,-0.138 h -0.265 v -0.148 l 1.566,-0.508 v 0.847 q 0.381,-0.392 0.751,-0.614 0.37,-0.233 0.868,-0.233 1.238,0 1.238,1.714 v 2.286 q 0,0.349 0.148,0.508 0.148,0.159 0.519,0.19 z"
               style="fill:url(#linearGradient1109);fill-opacity:1.0" />
            <path
               inkscape:connector-curvature="0"
               id="path20"
               d="m 63.972,145.38 h -0.878 q 0.201,0.434 0.201,0.91 0,0.741 -0.497,1.185 -0.497,0.434 -1.217,0.434 -0.074,0 -0.572,-0.074 -0.169,0.042 -0.392,0.275 -0.212,0.222 -0.212,0.402 0,0.074 0.063,0.127 0.074,0.042 0.201,0.074 0.127,0.032 0.222,0.042 0.106,0.011 0.265,0.032 0.159,0.011 0.201,0.011 0.159,0.011 0.455,0.021 0.296,0 0.434,0.011 0.138,0.011 0.381,0.032 0.243,0.021 0.36,0.053 0.127,0.032 0.296,0.085 0.169,0.053 0.254,0.138 0.085,0.085 0.169,0.201 0.095,0.116 0.127,0.275 0.042,0.169 0.042,0.37 0,0.561 -0.497,0.984 -0.497,0.434 -1.111,0.614 -0.614,0.18 -1.154,0.18 -0.836,0 -1.334,-0.36 -0.487,-0.349 -0.487,-0.73 0,-0.148 0.095,-0.317 0.106,-0.159 0.201,-0.254 0.095,-0.095 0.36,-0.328 0.265,-0.222 0.381,-0.328 -0.55,-0.222 -0.55,-0.55 0,-0.466 0.942,-1.154 -0.995,-0.402 -0.995,-1.408 0,-0.762 0.54,-1.238 0.54,-0.476 1.312,-0.476 0.381,0 0.889,0.201 0.508,0.19 0.984,0.19 0.222,0 0.519,-0.032 z m -1.492,1.207 q 0,-0.54 -0.286,-1.101 -0.275,-0.571 -0.762,-0.571 -0.825,0 -0.825,1.01 0,0.635 0.254,1.175 0.265,0.529 0.836,0.529 0.783,0 0.783,-1.037 z m 1.101,3.598 q 0,-0.19 -0.116,-0.317 -0.106,-0.116 -0.349,-0.169 -0.243,-0.053 -0.434,-0.074 -0.191,-0.011 -0.529,-0.011 -0.995,0 -1.598,-0.116 -0.519,0.571 -0.519,0.931 0,0.307 0.37,0.519 0.37,0.222 1.132,0.222 0.931,0 1.482,-0.275 0.561,-0.265 0.561,-0.709 z"
               style="fill:url(#linearGradient1109);fill-opacity:1.0" />
          </g>
        </g>
        <g
           style="fill:#00b6b6;fill-opacity:1"
           id="g32"
           aria-label="Big"
           transform="translate(38.754,-2.138)">
          <path
             inkscape:connector-curvature="0"
             id="path28"
             d="m 14.696,211.34 q 0,0.889 -0.635,1.524 -0.635,0.635 -1.482,0.635 -0.931,0 -1.566,-0.635 -0.593,-0.635 -0.593,-1.524 0,-0.931 0.593,-1.566 0.635,-0.635 1.566,-0.635 0.847,0 1.482,0.635 0.635,0.635 0.635,1.566 z m 3.217,26.67 H 7.883 v -0.593 q 1.863,-0.127 2.498,-0.762 0.677,-0.635 0.677,-2.032 v -10.287 q 0,-1.82 -0.296,-2.498 -0.254,-0.677 -1.101,-0.677 -0.55,0 -1.778,0.339 v -0.593 l 6.773,-2.286 v 16 q 0,1.439 0.677,2.074 0.677,0.593 2.582,0.72 z"
             style="fill-opacity:1;fill:#00b6b6" />
          <path
             inkscape:connector-curvature="0"
             id="path30"
             d="M 38.544,221.67 H 35.03 q 0.804,1.736 0.804,3.641 0,2.963 -1.99,4.741 -1.99,1.736 -4.868,1.736 -0.296,0 -2.286,-0.296 -0.677,0.169 -1.566,1.101 -0.847,0.889 -0.847,1.609 0,0.296 0.254,0.508 0.296,0.169 0.804,0.296 0.508,0.127 0.889,0.169 0.423,0.042 1.058,0.127 0.635,0.042 0.804,0.042 0.635,0.042 1.82,0.085 1.185,0 1.736,0.042 0.55,0.042 1.524,0.127 0.974,0.085 1.439,0.212 0.508,0.127 1.185,0.339 0.677,0.212 1.016,0.55 0.339,0.339 0.677,0.804 0.381,0.466 0.508,1.101 0.169,0.677 0.169,1.482 0,2.244 -1.99,3.937 -1.99,1.736 -4.445,2.455 -2.455,0.72 -4.614,0.72 -3.344,0 -5.334,-1.439 -1.947,-1.397 -1.947,-2.921 0,-0.593 0.381,-1.27 0.423,-0.635 0.804,-1.016 0.381,-0.381 1.439,-1.312 1.058,-0.889 1.524,-1.312 -2.201,-0.889 -2.201,-2.201 0,-1.863 3.768,-4.614 -3.979,-1.609 -3.979,-5.63 0,-3.048 2.159,-4.953 2.159,-1.905 5.249,-1.905 1.524,0 3.556,0.804 2.032,0.762 3.937,0.762 0.889,0 2.074,-0.127 z m -5.969,4.826 q 0,-2.159 -1.143,-4.403 -1.101,-2.286 -3.048,-2.286 -3.302,0 -3.302,4.02 0,2.54 1.016,4.699 1.058,2.117 3.344,2.117 3.133,0 3.133,-4.149 z m 4.403,14.393 q 0,-0.762 -0.466,-1.27 -0.423,-0.466 -1.397,-0.677 -0.974,-0.212 -1.736,-0.296 -0.762,-0.042 -2.117,-0.042 -3.979,0 -6.392,-0.466 -2.074,2.286 -2.074,3.725 0,1.228 1.482,2.074 1.482,0.889 4.53,0.889 3.725,0 5.927,-1.101 2.244,-1.058 2.244,-2.836 z"
             style="fill-opacity:1;fill:#00b6b6" />
        </g>
        <g
           style="fill:#f3506f;fill-opacity:1"
           id="g38"
           aria-label="Ok"
           transform="translate(38.754,-2.138)">
          <path
             inkscape:connector-curvature="0"
             id="path34"
             d="m 46.826,234.71 q 0,4.667 -2.858,7.81 -2.826,3.112 -7.493,3.112 -4.35,0 -7.366,-3.02 -3.02,-3.048 -3.02,-7.906 0,-4.762 2.794,-7.874 2.826,-3.112 7.588,-3.112 2.572,0 4.604,0.952 2.032,0.952 3.239,2.572 1.238,1.588 1.873,3.493 0.635,1.905 0.635,3.969 z m -3.588,0 q 0,-2.635 -0.635,-4.762 -0.603,-2.127 -2.159,-3.588 -1.556,-1.46 -3.842,-1.46 -0.953,0 -1.81,0.222 -0.825,0.19 -1.81,0.826 -0.984,0.635 -1.683,1.683 -0.698,1.016 -1.175,2.857 -0.445,1.81 -0.445,4.223 0,4.572 1.81,7.176 1.81,2.603 4.572,2.603 3.302,0 5.239,-2.603 1.937,-2.603 1.937,-7.176 z"
             style="fill:url(#linearGradient1117);fill-opacity:1.0" />
          <path
             inkscape:connector-curvature="0"
             id="path36"
             d="m 63.739,245.19 h -6.858 v -0.445 q 1.111,0 1.111,-0.571 0,-0.286 -0.254,-0.603 l -4.731,-6.223 v 5.302 q 0,1.048 0.508,1.524 0.508,0.476 1.905,0.571 v 0.445 h -7.461 v -0.445 q 1.365,-0.095 1.873,-0.571 0.508,-0.476 0.508,-1.524 v -15.843 q 0,-0.826 -0.191,-1.048 -0.191,-0.222 -0.857,-0.222 h -1.048 v -0.571 q 0.444,-0.127 1.016,-0.254 0.603,-0.127 0.984,-0.222 0.413,-0.127 0.762,-0.254 l 2,-0.698 v 13.303 l 4,-3.493 q 1.08,-0.921 1.08,-1.333 0,-0.571 -1.619,-0.571 v -0.445 h 6.509 v 0.445 q -0.953,0 -1.746,0.222 -0.794,0.222 -1.619,0.762 -0.794,0.54 -1.334,0.984 -0.508,0.445 -1.524,1.365 -0.984,0.921 -1.556,1.429 l 4.604,5.874 q 1.968,2.54 3.937,2.667 z"
             style="fill:url(#linearGradient1119);fill-opacity:1.0" />
        </g>
      </g>
      <path
         style="fill:#00b6b6"
         inkscape:connector-curvature="0"
         id="path42"
         d="m 70.36,220.31 c 0.647,1.374 0.974,2.724 0.974,4.049 0,0.474 -0.033,0.904 -0.094,1.296 h 2.929 c 0.282,-0.743 0.425,-1.57 0.425,-2.481 0,-0.989 -0.165,-1.944 -0.49,-2.864 z m -5.884,12.643 v 3.188 c 1.487,0.216 3.332,0.326 5.545,0.326 0.903,0 1.609,0.014 2.117,0.042 0.372,0.041 0.795,0.113 1.243,0.2 v -3.03 c -0.005,-0.001 -0.011,-0.003 -0.016,-0.004 -0.31,-0.085 -0.791,-0.155 -1.44,-0.212 -0.649,-0.056 -1.157,-0.099 -1.524,-0.127 -0.367,-0.028 -0.946,-0.042 -1.736,-0.042 -0.79,-0.028 -1.397,-0.057 -1.82,-0.085 -0.113,0 -0.381,-0.014 -0.805,-0.042 -0.423,-0.056 -0.776,-0.099 -1.058,-0.127 -0.152,-0.017 -0.325,-0.048 -0.507,-0.085 z" />
    </g>
    <g
       transform="translate(-70.108061,-76.502915)"
       id="g1620"
       style="fill:#00b6bf;fill-opacity:1">
      <path
         inkscape:connector-curvature="0"
         style="fill:#00b6bf;fill-opacity:1;stroke-width:3.77952766"
         d="m 268.43164,306.28906 v 3.20117 c 10.34583,0 15.51953,3.19961 15.51953,9.59961 v 34.55274 h 4.36328 v 7.61328 7.61328 h -4.36328 v 22.21094 h 4.36328 7.70117 v 7.70117 7.70313 h -7.70117 -7.70312 v -0.25391 c -2.5722,1.84644 -6.62266,2.77734 -12.17969,2.77734 v 3.20117 h 50.40039 c 12.79244,0 22.92089,-2.50535 30.38672,-7.51953 7.58425,-5.12 11.37695,-12.37394 11.37695,-21.75976 h 0.008 c 0,-7.14582 -2.55969,-12.90513 -7.67969,-17.2793 -5.11496,-4.48 -11.46458,-7.46676 -19.04883,-8.96094 14.18583,-3.52 21.27734,-11.30715 21.27734,-23.36133 0,-18.02582 -14.66582,-27.03906 -44,-27.03906 z m 40.16406,6.39844 c 2.98583,0 5.54747,0.10614 7.68164,0.32031 2.24,0.10583 4.85207,0.58724 7.83789,1.44141 3.09418,0.74835 5.60149,1.81534 7.52149,3.20117 1.92,1.38583 3.57316,3.46606 4.95898,6.24023 1.38535,2.77322 2.07765,6.07967 2.07813,9.91797 0,0 0,0.002 0,0.002 -9.3e-4,6.39806 -2.24163,11.30528 -6.72071,14.71875 -4.37417,3.41417 -10.61292,5.12109 -18.71874,5.12109 h -13.11915 v -36.32227 c 0,-1.81417 0.63993,-3.04164 1.91993,-3.68164 1.28,-0.64 3.46637,-0.95898 6.56054,-0.95898 z m -22.07226,4.23438 h 3.13476 3.13477 v 3.13476 3.13477 h -3.13477 -3.13476 v -3.13477 z m 13.58789,43.13476 h 7.83984 c 22.82835,0 34.24219,7.57154 34.24219,22.71484 l -0.004,0.004 c 0,8.64 -2.55968,14.72024 -7.67968,18.24023 -5.01166,3.52 -12.10513,5.2793 -21.2793,5.2793 -5.44,0 -9.01292,-0.63992 -10.71875,-1.91992 -1.6,-1.28 -2.40039,-3.5207 -2.40039,-6.7207 z"
         transform="scale(0.26458333)"
         id="path26-2" />
      <path
         style="fill:url(#linearGradient1175);fill-opacity:1.0;stroke-width:0.04739296"
         d="m 67.893621,105.847 v -0.90046 h 0.900468 0.900464 v -1.3507 -1.3507 h 1.350698 1.350703 v 1.3507 1.3507 h -1.350703 -1.350698 v 0.90046 0.90047 h -0.900464 -0.900468 z m 5.26062,0.0711 v -0.82937 h 0.829375 0.82938 v 0.82937 0.82938 h -0.82938 -0.829375 z m -6.966766,-3.24641 v -0.6635 h 0.663499 0.663505 v 0.6635 0.6635 h -0.663505 -0.663499 z m 8.388557,-1.80093 v -0.85308 H 73.841439 73.10685 v -0.734592 -0.73459 h 0.734589 0.734593 v 0.73459 0.734592 h 0.853073 0.853073 v 0.85308 0.85307 h -0.853073 -0.853073 z m -5.687156,-3.293822 v -1.25591 h -0.734594 -0.734589 v -0.73459 -0.73459 h 0.734589 0.734594 v 0.73459 0.73459 h 1.255911 1.255912 v 1.25591 1.25592 h -1.255912 -1.255911 z m -5.023657,-3.08055 v -0.73459 h 0.734594 0.734589 v 0.73459 0.73459 h -0.734589 -0.734594 z m 3.791438,-2.74879 v -1.39809 h 1.398094 1.398088 v 1.39809 1.39809 h -1.398088 -1.398094 z m 4.881475,0.71089 v -0.6872 h 0.687197 0.687199 v 0.6872 0.6872 h -0.687199 -0.687197 z m 0.142181,-3.981004 v -1.3507 h 1.350699 1.350698 v 1.3507 1.350699 H 74.031012 72.680313 Z M 67.656657,86.036745 V 85.32585 h 0.710895 0.710896 v 0.710895 0.710894 h -0.710896 -0.710895 z m 4.217974,-2.582916 V 82.76663 h 0.687198 0.687198 v 0.687199 0.687197 h -0.687198 -0.687198 z"
         id="path1438-0-1"
         inkscape:connector-curvature="0"
         sodipodi:nodetypes="ccccccccccccccccccccccccccccccccccccccccccccccccccccccccccccccccccccccccccccccccccccccccccccccccccccccccccccccccccccccccccc" />
    </g>
  </g>
</svg>
