<svg xmlns="http://www.w3.org/2000/svg" xmlns:xlink="http://www.w3.org/1999/xlink" viewBox="0 0 95.250004 42.333334" height="160" width="360"><defs><linearGradient id="4" x1="38.58" y1="18.371" x2="1.662" y2="18.03" gradientUnits="userSpaceOnUse"><stop stop-color="#00b6bf" stop-opacity="0.991"/><stop offset="0.687" stop-color="#00b6b6"/><stop offset="0.795" stop-color="#a02d6e"/><stop offset="0.89" stop-color="#f3506f"/><stop offset="0.985" stop-color="#fcb450"/></linearGradient><linearGradient id="5" x1="39.624" y1="6.753" x2="43.15" y2="4.452" gradientUnits="userSpaceOnUse"><stop stop-color="#00b6bf" stop-opacity="0.991"/><stop offset="0.176" stop-color="#00b6b6"/><stop offset="0.586" stop-color="#a02d6e"/><stop offset="0.886" stop-color="#f3506f"/><stop offset="0.985" stop-color="#fcb450"/></linearGradient><linearGradient xlink:href="#0" id="3" x1="47.959" x2="63.739" gradientUnits="userSpaceOnUse"/><linearGradient id="1" x1="43.13" y1="149.56" x2="58.889" y2="129.69" gradientUnits="userSpaceOnUse" xlink:href="#0"/><linearGradient id="0" gradientUnits="userSpaceOnUse" x1="-42.759" y1="-4.78" x2="20.07" y2="104.04"><stop stop-color="#8c42a1"/><stop offset="0.389" stop-color="#922c88"/><stop offset="0.731" stop-color="#a02d6e"/><stop offset="0.86" stop-color="#f3506f"/><stop offset="0.985" stop-color="#fcb450"/></linearGradient><linearGradient xlink:href="#0" id="2" x1="26.09" x2="46.826" gradientUnits="userSpaceOnUse"/></defs><g transform="translate(-9.628 -203.4)"><g stroke-width="0.265"><g transform="translate(31.26 64.736)" fill="url(#1)"><g aria-label="mark"><path d="m 25.937 142.51 q 0.011 0 0.222 -0.19 0.222 -0.201 0.603 -0.402 0.381 -0.201 0.773 -0.201 0.392 0 0.688 0.254 0.307 0.254 0.402 0.646 0.328 -0.37 0.773 -0.635 0.455 -0.265 0.868 -0.265 0.36 0 0.614 0.127 0.265 0.127 0.402 0.307 0.138 0.18 0.212 0.476 0.074 0.296 0.085 0.529 0.021 0.233 0.021 0.582 v 1.979 q 0 0.349 0.148 0.508 0.148 0.159 0.519 0.19 v 0.148 h -2.222 v -0.148 q 0.37 -0.032 0.519 -0.19 0.148 -0.159 0.148 -0.508 v -2.148 q 0 -0.762 -0.169 -1.016 -0.159 -0.265 -0.656 -0.265 -0.751 0 -1.143 0.635 v 2.794 q 0 0.349 0.148 0.508 0.148 0.159 0.519 0.19 v 0.148 h -2.223 v -0.148 q 0.37 -0.032 0.519 -0.19 0.148 -0.159 0.148 -0.508 v -2.191 q 0 -0.265 -0.021 -0.434 -0.011 -0.169 -0.085 -0.381 -0.064 -0.212 -0.222 -0.317 -0.159 -0.106 -0.413 -0.106 -0.339 0 -0.688 0.169 -0.349 0.169 -0.529 0.445 v 2.815 q 0 0.349 0.148 0.508 0.148 0.159 0.519 0.19 v 0.148 h -2.223 v -0.148 q 0.37 -0.032 0.519 -0.19 0.148 -0.159 0.148 -0.508 v -2.572 q 0 -0.445 -0.127 -0.571 -0.116 -0.127 -0.54 -0.127 v -0.18 l 1.556 -0.55 v 0.698 q 0 0.095 0.042 0.095 z"/><path d="m 32.999 142.91 q 0 -0.116 0.074 -0.286 0.074 -0.18 0.243 -0.392 0.18 -0.222 0.561 -0.37 0.381 -0.148 0.91 -0.148 0.868 0 1.185 0.413 0.328 0.402 0.328 1.397 v 2.222 q 0 0.328 0.243 0.328 0.191 0 0.55 -0.243 v 0.275 q -0.159 0.19 -0.423 0.381 -0.254 0.19 -0.455 0.19 -0.381 0 -0.561 -0.233 -0.18 -0.233 -0.201 -0.582 -0.878 0.815 -1.524 0.815 -0.476 0 -0.804 -0.328 -0.318 -0.328 -0.318 -0.794 0 -0.233 0.074 -0.434 0.085 -0.212 0.201 -0.37 0.116 -0.159 0.318 -0.307 0.201 -0.159 0.37 -0.265 0.169 -0.106 0.423 -0.212 0.265 -0.116 0.423 -0.18 0.169 -0.064 0.423 -0.159 0.265 -0.095 0.37 -0.138 0 -0.889 -0.148 -1.207 -0.148 -0.328 -0.624 -0.328 -0.18 0 -0.402 0.085 -0.212 0.085 -0.296 0.212 -0.021 0.085 -0.021 0.159 0 0.053 0.011 0.212 0.011 0.148 0.011 0.243 0 0.18 -0.148 0.328 -0.138 0.148 -0.318 0.148 -0.233 0 -0.36 -0.116 -0.116 -0.127 -0.116 -0.317 z m 2.413 2.656 v -1.799 q -0.106 0.042 -0.349 0.138 -0.243 0.085 -0.392 0.148 -0.148 0.053 -0.349 0.169 -0.201 0.106 -0.318 0.233 -0.106 0.116 -0.191 0.307 -0.085 0.18 -0.085 0.413 0 0.37 0.191 0.624 0.201 0.243 0.561 0.243 0.191 0 0.519 -0.148 0.339 -0.159 0.413 -0.328 z"/><path d="m 40.644 142.28 q 0 0.466 -0.434 0.466 -0.201 0 -0.402 -0.18 -0.191 -0.19 -0.307 -0.19 -0.159 0 -0.413 0.307 -0.243 0.296 -0.243 0.519 v 2.519 q 0 0.349 0.169 0.508 0.169 0.159 0.635 0.19 v 0.148 h -2.487 v -0.148 q 0.466 -0.032 0.624 -0.19 0.169 -0.159 0.169 -0.508 v -2.307 q 0 -0.582 -0.095 -0.804 -0.085 -0.222 -0.328 -0.222 -0.148 0 -0.37 0.064 v -0.159 l 1.683 -0.571 v 0.963 q 0.212 -0.37 0.529 -0.667 0.318 -0.296 0.677 -0.296 0.593 0 0.593 0.561 z"/><path d="m 45.925 146.57 h -2.286 v -0.148 q 0.37 0 0.37 -0.19 0 -0.095 -0.085 -0.201 l -1.577 -2.074 v 1.767 q 0 0.349 0.169 0.508 0.169 0.159 0.635 0.19 v 0.148 h -2.487 v -0.148 q 0.455 -0.032 0.624 -0.19 0.169 -0.159 0.169 -0.508 v -5.281 q 0 -0.275 -0.063 -0.349 -0.063 -0.074 -0.286 -0.074 h -0.349 v -0.19 q 0.148 -0.042 0.339 -0.085 0.201 -0.042 0.328 -0.074 0.138 -0.042 0.254 -0.085 l 0.667 -0.233 v 4.434 l 1.334 -1.164 q 0.36 -0.307 0.36 -0.445 0 -0.19 -0.54 -0.19 v -0.148 h 2.17 v 0.148 q -0.318 0 -0.582 0.074 -0.265 0.074 -0.54 0.254 -0.265 0.18 -0.444 0.328 -0.169 0.148 -0.508 0.455 -0.328 0.307 -0.519 0.476 l 1.535 1.958 q 0.656 0.847 1.312 0.889 z"/></g><g aria-label="eting"><path d="m 47.62 147.8 q -0.265 0.762 -0.857 1.281 -0.593 0.508 -1.355 0.508 -0.889 0 -1.45 -0.698 -0.55 -0.709 -0.55 -1.683 0 -1.143 0.593 -1.863 0.593 -0.72 1.556 -0.72 0.825 0 1.334 0.55 0.508 0.54 0.529 1.376 h -3.291 q 0.011 0.54 0.18 1.048 0.169 0.508 0.572 0.889 0.402 0.381 0.963 0.381 0.487 0 0.9 -0.317 0.423 -0.328 0.699 -0.815 z m -1.281 -1.577 q -0.032 -0.529 -0.286 -0.868 -0.243 -0.349 -0.73 -0.349 -0.995 0 -1.164 1.217 z"/><path d="m 49.973,149.01 q 0.402,0 0.698,-0.392 l 0.148,0.127 q -0.646,0.836 -1.365,0.836 -0.508,0 -0.677,-0.328 -0.169,-0.328 -0.169,-1.154 v -3.037 H 48.29 q -0.021,0 -0.085,0.011 -0.063,0 -0.095,0 -0.032,0 -0.085,-0.011 -0.042,-0.021 -0.032,-0.053 0.011,-0.032 0.021,-0.095 0.212,-0.138 0.423,-0.339 0.212,-0.212 0.349,-0.37 0.138,-0.159 0.37,-0.434 0.233,-0.286 0.36,-0.434 v 1.397 h 1.037 v 0.328 h -1.037 v 2.857 q 0,0.55 0.085,0.826 0.095,0.265 0.37,0.265 z"/><path d="m 52.739 142.8 q 0 0.222 -0.159 0.381 -0.159 0.159 -0.37 0.159 -0.233 0 -0.392 -0.159 -0.148 -0.159 -0.148 -0.381 0 -0.233 0.148 -0.392 0.159 -0.159 0.392 -0.159 0.212 0 0.37 0.159 0.159 0.159 0.159 0.392 z m 0.804 6.667 h -2.508 v -0.148 q 0.466 -0.032 0.624 -0.19 0.169 -0.159 0.169 -0.508 v -2.572 q 0 -0.455 -0.074 -0.624 -0.063 -0.169 -0.275 -0.169 -0.138 0 -0.444 0.085 v -0.148 l 1.693 -0.571 v 4 q 0 0.36 0.169 0.519 0.169 0.148 0.646 0.18 z"/><path d="m 58.913 149.47 h -2.222 v -0.148 q 0.37 -0.032 0.519 -0.19 0.148 -0.159 0.148 -0.508 v -2.275 q 0 -0.36 -0.042 -0.582 -0.042 -0.222 -0.233 -0.392 -0.191 -0.18 -0.54 -0.18 -0.55 0 -1.154 0.603 v 2.826 q 0 0.349 0.148 0.508 0.148 0.159 0.519 0.19 v 0.148 h -2.233 v -0.148 q 0.37 -0.032 0.519 -0.19 0.148 -0.159 0.148 -0.508 v -2.582 q 0 -0.497 -0.074 -0.624 -0.074 -0.138 -0.328 -0.138 h -0.265 v -0.148 l 1.566 -0.508 v 0.847 q 0.381 -0.392 0.751 -0.614 0.37 -0.233 0.868 -0.233 1.238 0 1.238 1.714 v 2.286 q 0 0.349 0.148 0.508 0.148 0.159 0.519 0.19 z"/><path d="m 63.972 145.38 h -0.878 q 0.201 0.434 0.201 0.91 0 0.741 -0.497 1.185 -0.497 0.434 -1.217 0.434 -0.074 0 -0.572 -0.074 -0.169 0.042 -0.392 0.275 -0.212 0.222 -0.212 0.402 0 0.074 0.063 0.127 0.074 0.042 0.201 0.074 0.127 0.032 0.222 0.042 0.106 0.011 0.265 0.032 0.159 0.011 0.201 0.011 0.159 0.011 0.455 0.021 0.296 0 0.434 0.011 0.138 0.011 0.381 0.032 0.243 0.021 0.36 0.053 0.127 0.032 0.296 0.085 0.169 0.053 0.254 0.138 0.085 0.085 0.169 0.201 0.095 0.116 0.127 0.275 0.042 0.169 0.042 0.37 0 0.561 -0.497 0.984 -0.497 0.434 -1.111 0.614 -0.614 0.18 -1.154 0.18 -0.836 0 -1.334 -0.36 -0.487 -0.349 -0.487 -0.73 0 -0.148 0.095 -0.317 0.106 -0.159 0.201 -0.254 0.095 -0.095 0.36 -0.328 0.265 -0.222 0.381 -0.328 -0.55 -0.222 -0.55 -0.55 0 -0.466 0.942 -1.154 -0.995 -0.402 -0.995 -1.408 0 -0.762 0.54 -1.238 0.54 -0.476 1.312 -0.476 0.381 0 0.889 0.201 0.508 0.19 0.984 0.19 0.222 0 0.519 -0.032 z m -1.492 1.207 q 0 -0.54 -0.286 -1.101 -0.275 -0.571 -0.762 -0.571 -0.825 0 -0.825 1.01 0 0.635 0.254 1.175 0.265 0.529 0.836 0.529 0.783 0 0.783 -1.037 z m 1.101 3.598 q 0 -0.19 -0.116 -0.317 -0.106 -0.116 -0.349 -0.169 -0.243 -0.053 -0.434 -0.074 -0.191 -0.011 -0.529 -0.011 -0.995 0 -1.598 -0.116 -0.519 0.571 -0.519 0.931 0 0.307 0.37 0.519 0.37 0.222 1.132 0.222 0.931 0 1.482 -0.275 0.561 -0.265 0.561 -0.709 z"/></g></g><g aria-label="Big" transform="translate(38.754 -2.138)" fill="#00b6b6"><path d="m 17.913 238.01 h -10.03 v -0.593 c 1.242 -0.085 2.075 -0.339 2.498 -0.762 0.451 -0.423 0.677 -1.101 0.677 -2.032 v -10.287 c 0 -1.213 -0.099 -2.046 -0.296 -2.498 -0.169 -0.451 -0.536 -0.677 -1.101 -0.677 -0.367 0 -0.959 0.113 -1.778 0.339 v -0.593 l 6.773 -2.286 v 16 c 0 0.959 0.226 1.651 0.677 2.074 0.451 0.395 1.312 0.635 2.582 0.72 z"/><path d="M 38.544,221.67 H 35.03 q 0.804,1.736 0.804,3.641 0,2.963 -1.99,4.741 -1.99,1.736 -4.868,1.736 -0.296,0 -2.286,-0.296 -0.677,0.169 -1.566,1.101 -0.847,0.889 -0.847,1.609 0,0.296 0.254,0.508 0.296,0.169 0.804,0.296 0.508,0.127 0.889,0.169 0.423,0.042 1.058,0.127 0.635,0.042 0.804,0.042 0.635,0.042 1.82,0.085 1.185,0 1.736,0.042 0.55,0.042 1.524,0.127 0.974,0.085 1.439,0.212 0.508,0.127 1.185,0.339 0.677,0.212 1.016,0.55 0.339,0.339 0.677,0.804 0.381,0.466 0.508,1.101 0.169,0.677 0.169,1.482 0,2.244 -1.99,3.937 -1.99,1.736 -4.445,2.455 -2.455,0.72 -4.614,0.72 -3.344,0 -5.334,-1.439 -1.947,-1.397 -1.947,-2.921 0,-0.593 0.381,-1.27 0.423,-0.635 0.804,-1.016 0.381,-0.381 1.439,-1.312 1.058,-0.889 1.524,-1.312 -2.201,-0.889 -2.201,-2.201 0,-1.863 3.768,-4.614 -3.979,-1.609 -3.979,-5.63 0,-3.048 2.159,-4.953 2.159,-1.905 5.249,-1.905 1.524,0 3.556,0.804 2.032,0.762 3.937,0.762 0.889,0 2.074,-0.127 z m -5.969,4.826 q 0,-2.159 -1.143,-4.403 -1.101,-2.286 -3.048,-2.286 -3.302,0 -3.302,4.02 0,2.54 1.016,4.699 1.058,2.117 3.344,2.117 3.133,0 3.133,-4.149 z m 4.403,14.393 q 0,-0.762 -0.466,-1.27 -0.423,-0.466 -1.397,-0.677 -0.974,-0.212 -1.736,-0.296 -0.762,-0.042 -2.117,-0.042 -3.979,0 -6.392,-0.466 -2.074,2.286 -2.074,3.725 0,1.228 1.482,2.074 1.482,0.889 4.53,0.889 3.725,0 5.927,-1.101 2.244,-1.058 2.244,-2.836 z"/></g><g aria-label="Ok" transform="translate(38.754 -2.138)" fill="#f3506f"><path d="m 46.826 234.71 q 0 4.667 -2.858 7.81 -2.826 3.112 -7.493 3.112 -4.35 0 -7.366 -3.02 -3.02 -3.048 -3.02 -7.906 0 -4.762 2.794 -7.874 2.826 -3.112 7.588 -3.112 2.572 0 4.604 0.952 2.032 0.952 3.239 2.572 1.238 1.588 1.873 3.493 0.635 1.905 0.635 3.969 z m -3.588 0 q 0 -2.635 -0.635 -4.762 -0.603 -2.127 -2.159 -3.588 -1.556 -1.46 -3.842 -1.46 -0.953 0 -1.81 0.222 -0.825 0.19 -1.81 0.826 -0.984 0.635 -1.683 1.683 -0.698 1.016 -1.175 2.857 -0.445 1.81 -0.445 4.223 0 4.572 1.81 7.176 1.81 2.603 4.572 2.603 3.302 0 5.239 -2.603 1.937 -2.603 1.937 -7.176 z" fill="url(#2)"/><path d="m 63.739 245.19 h -6.858 v -0.445 q 1.111 0 1.111 -0.571 0 -0.286 -0.254 -0.603 l -4.731 -6.223 v 5.302 q 0 1.048 0.508 1.524 0.508 0.476 1.905 0.571 v 0.445 h -7.461 v -0.445 q 1.365 -0.095 1.873 -0.571 0.508 -0.476 0.508 -1.524 v -15.843 q 0 -0.826 -0.191 -1.048 -0.191 -0.222 -0.857 -0.222 h -1.048 v -0.571 q 0.444 -0.127 1.016 -0.254 0.603 -0.127 0.984 -0.222 0.413 -0.127 0.762 -0.254 l 2 -0.698 v 13.303 l 4 -3.493 q 1.08 -0.921 1.08 -1.333 0 -0.571 -1.619 -0.571 v -0.445 h 6.509 v 0.445 q -0.953 0 -1.746 0.222 -0.794 0.222 -1.619 0.762 -0.794 0.54 -1.334 0.984 -0.508 0.445 -1.524 1.365 -0.984 0.921 -1.556 1.429 l 4.604 5.874 q 1.968 2.54 3.937 2.667 z" fill="url(#3)"/></g></g><path d="m 70.36 220.31 c 0.647 1.374 0.974 2.724 0.974 4.049 0 0.474 -0.033 0.904 -0.094 1.296 h 2.929 c 0.282 -0.743 0.425 -1.57 0.425 -2.481 0 -0.989 -0.165 -1.944 -0.49 -2.864 z m -5.884 12.643 v 3.188 c 1.487 0.216 3.332 0.326 5.545 0.326 0.903 0 1.609 0.014 2.117 0.042 0.372 0.041 0.795 0.113 1.243 0.2 v -3.03 c -0.005 -0.001 -0.011 -0.003 -0.016 -0.004 -0.31 -0.085 -0.791 -0.155 -1.44 -0.212 -0.649 -0.056 -1.157 -0.099 -1.524 -0.127 -0.367 -0.028 -0.946 -0.042 -1.736 -0.042 -0.79 -0.028 -1.397 -0.057 -1.82 -0.085 -0.113 0 -0.381 -0.014 -0.805 -0.042 -0.423 -0.056 -0.776 -0.099 -1.058 -0.127 -0.152 -0.017 -0.325 -0.048 -0.507 -0.085 z" fill="#00b6b6"/></g><path d="m 8.704 4.576 v 0.847 c 2.737 0 4.106 0.847 4.106 2.54 v 2.701 h -1.098 h -1.351 v 1.351 v 1.351 h 1.351 h 1.098 v 3.74 h 1.154 v 2.01 v 2.01 h -1.154 v 2.421 h -0.553 v 0.853 v 0.853 h 0.553 v 1.75 h 1.154 h 0.45 v 2.038 v 2.038 h -0.45 h -2.038 v -0.067 c -0.681 0.489 -1.752 0.735 -3.223 0.735 v 0.847 h 13.335 c 3.385 0 6.06 -0.663 8.04 -1.99 2.01 -1.355 3.01 -3.274 3.01 -5.757 h 0.002 c 0 -1.891 -0.677 -3.414 -2.032 -4.572 -1.353 -1.185 -3.033 -1.976 -5.04 -2.371 3.753 -0.931 5.63 -2.992 5.63 -6.181 0 -4.769 -3.88 -7.154 -11.642 -7.154 z m 3.553 18.979 v -0.735 v -0.734 h -0.734 h -0.735 v 0.734 v 0.735 h 0.735 z m 7.07 -17.286 c 0.79 0 1.468 0.028 2.032 0.085 0.593 0.028 1.284 0.155 2.074 0.381 0.819 0.198 1.482 0.48 1.99 0.847 0.508 0.367 0.945 0.917 1.312 1.651 0.367 0.734 0.55 1.609 0.55 2.624 v 0.001 c 0 1.693 -0.593 2.991 -1.778 3.894 -1.157 0.903 -2.808 1.355 -4.953 1.355 h -3.471 v -9.61 c 0 -0.48 0.169 -0.805 0.508 -0.974 c 0.339 -0.169 0.917 -0.254 1.736 -0.254 m -9.775 0.035 v 0.687 v 0.687 h 0.687 h 0.687 v -0.687 v -0.687 h -0.687 m 3.247 1.086 h 0.829 h 0.829 v 0.829 v 0.829 h -0.829 h -0.829 v -0.829 m -8.152 0.644 v 0.711 v 0.711 h 0.711 h 0.711 v -0.711 v -0.711 h -0.711 m -0.711 5.02 v 1.398 v 1.398 h 1.398 h 1.398 v -1.398 v -1.398 h -1.398 m 3.484 1.422 v 0.687 v 0.687 h 0.687 h 0.687 v -0.687 v -0.687 h -0.687 z m -8.673 1.991 v 0.734 v 0.735 h 0.734 h 0.735 v -0.735 v -0.734 h -0.735 z m 3.554 1.09 v 0.735 v 0.734 h 0.735 h 0.734 v -0.734 v -0.735 h -0.734 m 0.734 1.469 v 1.256 v 1.256 h 1.256 h 1.256 v -1.256 v -1.256 h -1.256 m 9.26 -1.056 h 2.074 c 6.04 0 9.06 2 9.06 6.01 l -0.001 0.001 c 0 2.286 -0.677 3.895 -2.032 4.826 -1.326 0.931 -3.203 1.397 -5.63 1.397 -1.439 0 -2.385 -0.169 -2.836 -0.508 -0.423 -0.339 -0.635 -0.932 -0.635 -1.778 z m -13.217 6.743 v 0.664 v 0.664 h 0.663 h 0.664 v -0.664 v -0.664 h -0.664 m 2.844 0.237 v 1.351 v 1.351 h 1.351 h 1.351 v -1.351 v -1.351 h -1.351 m -1.351 2.702 h -0.9 h -0.901 v 0.9 v 0.901 h 0.901 h 0.9 v -0.901 m 3.46 -0.758 v 0.829 v 0.829 h 0.829 h 0.829 v -0.829 v -0.829 h -0.829 z" fill="url(#4)" stroke-width="1"/><path d="m 43.44 5.494 c 0 0.593 -0.212 1.101 -0.635 1.524 -0.423 0.423 -0.917 0.635 -1.482 0.635 -0.621 0 -1.143 -0.212 -1.566 -0.635 -0.395 -0.423 -0.593 -0.931 -0.593 -1.524 0 -0.621 0.198 -1.143 0.593 -1.566 0.423 -0.423 0.945 -0.635 1.566 -0.635 0.565 0 1.059 0.212 1.482 0.635 0.423 0.423 0.635 0.945 0.635 1.566 z" fill="url(#5)" stroke-width="0.265"/></svg>