<?xml version="1.0" encoding="UTF-8" standalone="no"?>
<svg
   xmlns:dc="http://purl.org/dc/elements/1.1/"
   xmlns:cc="http://creativecommons.org/ns#"
   xmlns:rdf="http://www.w3.org/1999/02/22-rdf-syntax-ns#"
   xmlns:svg="http://www.w3.org/2000/svg"
   xmlns="http://www.w3.org/2000/svg"
   xmlns:xlink="http://www.w3.org/1999/xlink"
   xmlns:sodipodi="http://sodipodi.sourceforge.net/DTD/sodipodi-0.dtd"
   xmlns:inkscape="http://www.inkscape.org/namespaces/inkscape"
   viewBox="0 0 95.250004 42.333334"
   height="160"
   width="360"
   version="1.1"
   id="svg46"
   sodipodi:docname="logo2.svg"
   inkscape:version="0.92.3 (unknown)">
  <metadata
     id="metadata52">
    <rdf:RDF>
      <cc:Work
         rdf:about="">
        <dc:format>image/svg+xml</dc:format>
        <dc:type
           rdf:resource="http://purl.org/dc/dcmitype/StillImage" />
        <dc:title />
      </cc:Work>
    </rdf:RDF>
  </metadata>
  <defs
     id="defs50">
    <linearGradient
       y2="87.363403"
       x2="48.953999"
       y1="-21.456699"
       x1="-13.8733"
       gradientUnits="userSpaceOnUse"
       id="SVGID_4_">
      <stop
         id="stop1011"
         style="stop-color:#00b6bf;stop-opacity:0.99093139"
         offset="0" />
      <stop
         id="stop1013"
         style="stop-color:#00b6b6;stop-opacity:1"
         offset="0.68724263" />
      <stop
         id="stop1015"
         style="stop-color:#A02D6E"
         offset="0.79518861" />
      <stop
         id="stop1017"
         style="stop-color:#F3506F"
         offset="0.8896625" />
      <stop
         id="stop1019"
         style="stop-color:#FCB450"
         offset="0.9851" />
    </linearGradient>
    <linearGradient
       id="SVGID_1_"
       gradientUnits="userSpaceOnUse"
       x1="-13.2109"
       y1="-21.839199"
       x2="49.616402"
       y2="86.980904">
      <stop
         offset="0"
         style="stop-color:#8C42A1"
         id="stop6" />
      <stop
         offset="0.3886"
         style="stop-color:#922C88"
         id="stop8" />
      <stop
         offset="0.7307"
         style="stop-color:#A02D6E"
         id="stop10" />
      <stop
         offset="0.8604"
         style="stop-color:#F3506F"
         id="stop12" />
      <stop
         offset="0.9851"
         style="stop-color:#FCB450"
         id="stop14" />
    </linearGradient>
    <linearGradient
       id="SVGID_2_"
       gradientUnits="userSpaceOnUse"
       x1="-41.748798"
       y1="-5.3628001"
       x2="21.078501"
       y2="103.4573">
      <stop
         offset="0"
         style="stop-color:#8C42A1"
         id="stop19" />
      <stop
         offset="0.3886"
         style="stop-color:#922C88"
         id="stop21" />
      <stop
         offset="0.7307"
         style="stop-color:#A02D6E"
         id="stop23" />
      <stop
         offset="0.8604"
         style="stop-color:#F3506F"
         id="stop25" />
      <stop
         offset="0.9851"
         style="stop-color:#FCB450"
         id="stop27" />
    </linearGradient>
    <linearGradient
       id="SVGID_3_"
       gradientUnits="userSpaceOnUse"
       x1="-34.2383"
       y1="-9.6990004"
       x2="28.589001"
       y2="99.121101">
      <stop
         offset="0"
         style="stop-color:#8C42A1"
         id="stop32" />
      <stop
         offset="0.3886"
         style="stop-color:#922C88"
         id="stop34" />
      <stop
         offset="0.7307"
         style="stop-color:#A02D6E"
         id="stop36" />
      <stop
         offset="0.8604"
         style="stop-color:#F3506F"
         id="stop38" />
      <stop
         offset="0.9851"
         style="stop-color:#FCB450"
         id="stop40" />
    </linearGradient>
    <linearGradient
       id="SVGID_4_-4"
       gradientUnits="userSpaceOnUse"
       x1="-13.8733"
       y1="-21.456699"
       x2="48.953999"
       y2="87.363403">
      <stop
         offset="0"
         style="stop-color:#8C42A1"
         id="stop45" />
      <stop
         offset="0.3886"
         style="stop-color:#922C88"
         id="stop47" />
      <stop
         offset="0.7307"
         style="stop-color:#A02D6E"
         id="stop49" />
      <stop
         offset="0.8604"
         style="stop-color:#F3506F"
         id="stop51" />
      <stop
         offset="0.9851"
         style="stop-color:#FCB450"
         id="stop53" />
    </linearGradient>
    <linearGradient
       id="SVGID_5_"
       gradientUnits="userSpaceOnUse"
       x1="7.0488"
       y1="-33.536098"
       x2="69.876099"
       y2="75.283997">
      <stop
         offset="0"
         style="stop-color:#8C42A1"
         id="stop58" />
      <stop
         offset="0.3886"
         style="stop-color:#922C88"
         id="stop60" />
      <stop
         offset="0.7307"
         style="stop-color:#A02D6E"
         id="stop62" />
      <stop
         offset="0.8604"
         style="stop-color:#F3506F"
         id="stop64" />
      <stop
         offset="0.9851"
         style="stop-color:#FCB450"
         id="stop66" />
    </linearGradient>
    <linearGradient
       id="SVGID_6_"
       gradientUnits="userSpaceOnUse"
       x1="8.2494001"
       y1="-34.229301"
       x2="71.076698"
       y2="74.590797">
      <stop
         offset="0"
         style="stop-color:#8C42A1"
         id="stop71" />
      <stop
         offset="0.3886"
         style="stop-color:#922C88"
         id="stop73" />
      <stop
         offset="0.7307"
         style="stop-color:#A02D6E"
         id="stop75" />
      <stop
         offset="0.8604"
         style="stop-color:#F3506F"
         id="stop77" />
      <stop
         offset="0.9851"
         style="stop-color:#FCB450"
         id="stop79" />
    </linearGradient>
    <linearGradient
       id="SVGID_7_"
       gradientUnits="userSpaceOnUse"
       x1="-18.2505"
       y1="-18.9296"
       x2="44.5769"
       y2="89.890503">
      <stop
         offset="0"
         style="stop-color:#8C42A1"
         id="stop84" />
      <stop
         offset="0.3886"
         style="stop-color:#922C88"
         id="stop86" />
      <stop
         offset="0.7307"
         style="stop-color:#A02D6E"
         id="stop88" />
      <stop
         offset="0.8604"
         style="stop-color:#F3506F"
         id="stop90" />
      <stop
         offset="0.9851"
         style="stop-color:#FCB450"
         id="stop92" />
    </linearGradient>
    <linearGradient
       id="SVGID_8_"
       gradientUnits="userSpaceOnUse"
       x1="-8.6226997"
       y1="-24.488199"
       x2="54.204601"
       y2="84.331902">
      <stop
         offset="0"
         style="stop-color:#8C42A1"
         id="stop97" />
      <stop
         offset="0.3886"
         style="stop-color:#922C88"
         id="stop99" />
      <stop
         offset="0.7307"
         style="stop-color:#A02D6E"
         id="stop101" />
      <stop
         offset="0.8604"
         style="stop-color:#F3506F"
         id="stop103" />
      <stop
         offset="0.9851"
         style="stop-color:#FCB450"
         id="stop105" />
    </linearGradient>
    <linearGradient
       id="SVGID_9_"
       gradientUnits="userSpaceOnUse"
       x1="16.7775"
       y1="-39.153"
       x2="79.604797"
       y2="69.667099">
      <stop
         offset="0"
         style="stop-color:#8C42A1"
         id="stop110" />
      <stop
         offset="0.3886"
         style="stop-color:#922C88"
         id="stop112" />
      <stop
         offset="0.7307"
         style="stop-color:#A02D6E"
         id="stop114" />
      <stop
         offset="0.8604"
         style="stop-color:#F3506F"
         id="stop116" />
      <stop
         offset="0.9851"
         style="stop-color:#FCB450"
         id="stop118" />
    </linearGradient>
    <linearGradient
       id="SVGID_10_"
       gradientUnits="userSpaceOnUse"
       x1="-42.7589"
       y1="-4.7796001"
       x2="20.068399"
       y2="104.0405">
      <stop
         offset="0"
         style="stop-color:#8C42A1"
         id="stop123" />
      <stop
         offset="0.3886"
         style="stop-color:#922C88"
         id="stop125" />
      <stop
         offset="0.7307"
         style="stop-color:#A02D6E"
         id="stop127" />
      <stop
         offset="0.8604"
         style="stop-color:#F3506F"
         id="stop129" />
      <stop
         offset="0.9851"
         style="stop-color:#FCB450"
         id="stop131" />
    </linearGradient>
    <linearGradient
       inkscape:collect="always"
       xlink:href="#SVGID_9_"
       id="linearGradient1109"
       x1="43.133663"
       y1="149.56248"
       x2="58.888737"
       y2="129.69156"
       gradientUnits="userSpaceOnUse" />
    <linearGradient
       inkscape:collect="always"
       xlink:href="#SVGID_10_"
       id="linearGradient1117"
       x1="26.089001"
       y1="234.67599"
       x2="46.826"
       y2="234.67599"
       gradientUnits="userSpaceOnUse" />
    <linearGradient
       inkscape:collect="always"
       xlink:href="#SVGID_10_"
       id="linearGradient1119"
       x1="47.959"
       y1="234.364"
       x2="63.738998"
       y2="234.364"
       gradientUnits="userSpaceOnUse" />
    <linearGradient
       gradientTransform="translate(-76.094587,-34.695497)"
       inkscape:collect="always"
       xlink:href="#SVGID_10_"
       id="linearGradient1175-7"
       x1="63.865219"
       y1="94.757057"
       x2="76.282181"
       y2="94.757057"
       gradientUnits="userSpaceOnUse" />
    <linearGradient
       inkscape:collect="always"
       xlink:href="#SVGID_4_"
       id="linearGradient1009"
       x1="216.62074"
       y1="263.7421"
       x2="77.088989"
       y2="262.45682"
       gradientUnits="userSpaceOnUse"
       gradientTransform="matrix(0.26458334,0,0,0.26458334,-18.734496,-51.410941)" />
  </defs>
  <sodipodi:namedview
     pagecolor="#ffffff"
     bordercolor="#666666"
     borderopacity="1"
     objecttolerance="10"
     gridtolerance="10"
     guidetolerance="10"
     inkscape:pageopacity="0"
     inkscape:pageshadow="2"
     inkscape:window-width="1301"
     inkscape:window-height="744"
     id="namedview48"
     showgrid="false"
     inkscape:zoom="0.85882355"
     inkscape:cx="41.17363"
     inkscape:cy="172.98742"
     inkscape:window-x="65"
     inkscape:window-y="24"
     inkscape:window-maximized="1"
     inkscape:current-layer="svg46" />
  <g
     id="g1646"
     transform="translate(8.6279019)">
    <g
       id="g44"
       transform="translate(-18.255959,-203.4)">
      <g
         style="stroke-width:0.26499999"
         id="g40">
        <g
           style="fill:url(#linearGradient1109);fill-opacity:1.0"
           id="g24"
           transform="translate(31.26,64.736)">
          <g
             id="g10"
             aria-label="mark"
             style="fill:url(#linearGradient1109);fill-opacity:1.0">
            <path
               inkscape:connector-curvature="0"
               id="path2"
               d="m 25.937,142.51 q 0.011,0 0.222,-0.19 0.222,-0.201 0.603,-0.402 0.381,-0.201 0.773,-0.201 0.392,0 0.688,0.254 0.307,0.254 0.402,0.646 0.328,-0.37 0.773,-0.635 0.455,-0.265 0.868,-0.265 0.36,0 0.614,0.127 0.265,0.127 0.402,0.307 0.138,0.18 0.212,0.476 0.074,0.296 0.085,0.529 0.021,0.233 0.021,0.582 v 1.979 q 0,0.349 0.148,0.508 0.148,0.159 0.519,0.19 v 0.148 h -2.222 v -0.148 q 0.37,-0.032 0.519,-0.19 0.148,-0.159 0.148,-0.508 v -2.148 q 0,-0.762 -0.169,-1.016 -0.159,-0.265 -0.656,-0.265 -0.751,0 -1.143,0.635 v 2.794 q 0,0.349 0.148,0.508 0.148,0.159 0.519,0.19 v 0.148 h -2.223 v -0.148 q 0.37,-0.032 0.519,-0.19 0.148,-0.159 0.148,-0.508 v -2.191 q 0,-0.265 -0.021,-0.434 -0.011,-0.169 -0.085,-0.381 -0.064,-0.212 -0.222,-0.317 -0.159,-0.106 -0.413,-0.106 -0.339,0 -0.688,0.169 -0.349,0.169 -0.529,0.445 v 2.815 q 0,0.349 0.148,0.508 0.148,0.159 0.519,0.19 v 0.148 h -2.223 v -0.148 q 0.37,-0.032 0.519,-0.19 0.148,-0.159 0.148,-0.508 v -2.572 q 0,-0.445 -0.127,-0.571 -0.116,-0.127 -0.54,-0.127 v -0.18 l 1.556,-0.55 v 0.698 q 0,0.095 0.042,0.095 z"
               style="fill:url(#linearGradient1109);fill-opacity:1.0" />
            <path
               inkscape:connector-curvature="0"
               id="path4"
               d="m 32.999,142.91 q 0,-0.116 0.074,-0.286 0.074,-0.18 0.243,-0.392 0.18,-0.222 0.561,-0.37 0.381,-0.148 0.91,-0.148 0.868,0 1.185,0.413 0.328,0.402 0.328,1.397 v 2.222 q 0,0.328 0.243,0.328 0.191,0 0.55,-0.243 v 0.275 q -0.159,0.19 -0.423,0.381 -0.254,0.19 -0.455,0.19 -0.381,0 -0.561,-0.233 -0.18,-0.233 -0.201,-0.582 -0.878,0.815 -1.524,0.815 -0.476,0 -0.804,-0.328 -0.318,-0.328 -0.318,-0.794 0,-0.233 0.074,-0.434 0.085,-0.212 0.201,-0.37 0.116,-0.159 0.318,-0.307 0.201,-0.159 0.37,-0.265 0.169,-0.106 0.423,-0.212 0.265,-0.116 0.423,-0.18 0.169,-0.064 0.423,-0.159 0.265,-0.095 0.37,-0.138 0,-0.889 -0.148,-1.207 -0.148,-0.328 -0.624,-0.328 -0.18,0 -0.402,0.085 -0.212,0.085 -0.296,0.212 -0.021,0.085 -0.021,0.159 0,0.053 0.011,0.212 0.011,0.148 0.011,0.243 0,0.18 -0.148,0.328 -0.138,0.148 -0.318,0.148 -0.233,0 -0.36,-0.116 -0.116,-0.127 -0.116,-0.317 z m 2.413,2.656 v -1.799 q -0.106,0.042 -0.349,0.138 -0.243,0.085 -0.392,0.148 -0.148,0.053 -0.349,0.169 -0.201,0.106 -0.318,0.233 -0.106,0.116 -0.191,0.307 -0.085,0.18 -0.085,0.413 0,0.37 0.191,0.624 0.201,0.243 0.561,0.243 0.191,0 0.519,-0.148 0.339,-0.159 0.413,-0.328 z"
               style="fill:url(#linearGradient1109);fill-opacity:1.0" />
            <path
               inkscape:connector-curvature="0"
               id="path6"
               d="m 40.644,142.28 q 0,0.466 -0.434,0.466 -0.201,0 -0.402,-0.18 -0.191,-0.19 -0.307,-0.19 -0.159,0 -0.413,0.307 -0.243,0.296 -0.243,0.519 v 2.519 q 0,0.349 0.169,0.508 0.169,0.159 0.635,0.19 v 0.148 h -2.487 v -0.148 q 0.466,-0.032 0.624,-0.19 0.169,-0.159 0.169,-0.508 v -2.307 q 0,-0.582 -0.095,-0.804 -0.085,-0.222 -0.328,-0.222 -0.148,0 -0.37,0.064 v -0.159 l 1.683,-0.571 v 0.963 q 0.212,-0.37 0.529,-0.667 0.318,-0.296 0.677,-0.296 0.593,0 0.593,0.561 z"
               style="fill:url(#linearGradient1109);fill-opacity:1.0" />
            <path
               inkscape:connector-curvature="0"
               id="path8"
               d="m 45.925,146.57 h -2.286 v -0.148 q 0.37,0 0.37,-0.19 0,-0.095 -0.085,-0.201 l -1.577,-2.074 v 1.767 q 0,0.349 0.169,0.508 0.169,0.159 0.635,0.19 v 0.148 h -2.487 v -0.148 q 0.455,-0.032 0.624,-0.19 0.169,-0.159 0.169,-0.508 v -5.281 q 0,-0.275 -0.063,-0.349 -0.063,-0.074 -0.286,-0.074 h -0.349 v -0.19 q 0.148,-0.042 0.339,-0.085 0.201,-0.042 0.328,-0.074 0.138,-0.042 0.254,-0.085 l 0.667,-0.233 v 4.434 l 1.334,-1.164 q 0.36,-0.307 0.36,-0.445 0,-0.19 -0.54,-0.19 v -0.148 h 2.17 v 0.148 q -0.318,0 -0.582,0.074 -0.265,0.074 -0.54,0.254 -0.265,0.18 -0.444,0.328 -0.169,0.148 -0.508,0.455 -0.328,0.307 -0.519,0.476 l 1.535,1.958 q 0.656,0.847 1.312,0.889 z"
               style="fill:url(#linearGradient1109);fill-opacity:1.0" />
          </g>
          <g
             id="g22"
             aria-label="eting"
             style="fill:url(#linearGradient1109);fill-opacity:1.0">
            <path
               inkscape:connector-curvature="0"
               id="path12"
               d="m 47.62,147.8 q -0.265,0.762 -0.857,1.281 -0.593,0.508 -1.355,0.508 -0.889,0 -1.45,-0.698 -0.55,-0.709 -0.55,-1.683 0,-1.143 0.593,-1.863 0.593,-0.72 1.556,-0.72 0.825,0 1.334,0.55 0.508,0.54 0.529,1.376 h -3.291 q 0.011,0.54 0.18,1.048 0.169,0.508 0.572,0.889 0.402,0.381 0.963,0.381 0.487,0 0.9,-0.317 0.423,-0.328 0.699,-0.815 z m -1.281,-1.577 q -0.032,-0.529 -0.286,-0.868 -0.243,-0.349 -0.73,-0.349 -0.995,0 -1.164,1.217 z"
               style="fill:url(#linearGradient1109);fill-opacity:1.0" />
            <path
               inkscape:connector-curvature="0"
               id="path14"
               d="m 49.973,149.01 q 0.402,0 0.698,-0.392 l 0.148,0.127 q -0.646,0.836 -1.365,0.836 -0.508,0 -0.677,-0.328 -0.169,-0.328 -0.169,-1.154 v -3.037 H 48.29 q -0.021,0 -0.085,0.011 -0.063,0 -0.095,0 -0.032,0 -0.085,-0.011 -0.042,-0.021 -0.032,-0.053 0.011,-0.032 0.021,-0.095 0.212,-0.138 0.423,-0.339 0.212,-0.212 0.349,-0.37 0.138,-0.159 0.37,-0.434 0.233,-0.286 0.36,-0.434 v 1.397 h 1.037 v 0.328 h -1.037 v 2.857 q 0,0.55 0.085,0.826 0.095,0.265 0.37,0.265 z"
               style="fill:url(#linearGradient1109);fill-opacity:1.0" />
            <path
               inkscape:connector-curvature="0"
               id="path16"
               d="m 52.739,142.8 q 0,0.222 -0.159,0.381 -0.159,0.159 -0.37,0.159 -0.233,0 -0.392,-0.159 -0.148,-0.159 -0.148,-0.381 0,-0.233 0.148,-0.392 0.159,-0.159 0.392,-0.159 0.212,0 0.37,0.159 0.159,0.159 0.159,0.392 z m 0.804,6.667 h -2.508 v -0.148 q 0.466,-0.032 0.624,-0.19 0.169,-0.159 0.169,-0.508 v -2.572 q 0,-0.455 -0.074,-0.624 -0.063,-0.169 -0.275,-0.169 -0.138,0 -0.444,0.085 v -0.148 l 1.693,-0.571 v 4 q 0,0.36 0.169,0.519 0.169,0.148 0.646,0.18 z"
               style="fill:url(#linearGradient1109);fill-opacity:1.0" />
            <path
               inkscape:connector-curvature="0"
               id="path18"
               d="m 58.913,149.47 h -2.222 v -0.148 q 0.37,-0.032 0.519,-0.19 0.148,-0.159 0.148,-0.508 v -2.275 q 0,-0.36 -0.042,-0.582 -0.042,-0.222 -0.233,-0.392 -0.191,-0.18 -0.54,-0.18 -0.55,0 -1.154,0.603 v 2.826 q 0,0.349 0.148,0.508 0.148,0.159 0.519,0.19 v 0.148 h -2.233 v -0.148 q 0.37,-0.032 0.519,-0.19 0.148,-0.159 0.148,-0.508 v -2.582 q 0,-0.497 -0.074,-0.624 -0.074,-0.138 -0.328,-0.138 h -0.265 v -0.148 l 1.566,-0.508 v 0.847 q 0.381,-0.392 0.751,-0.614 0.37,-0.233 0.868,-0.233 1.238,0 1.238,1.714 v 2.286 q 0,0.349 0.148,0.508 0.148,0.159 0.519,0.19 z"
               style="fill:url(#linearGradient1109);fill-opacity:1.0" />
            <path
               inkscape:connector-curvature="0"
               id="path20"
               d="m 63.972,145.38 h -0.878 q 0.201,0.434 0.201,0.91 0,0.741 -0.497,1.185 -0.497,0.434 -1.217,0.434 -0.074,0 -0.572,-0.074 -0.169,0.042 -0.392,0.275 -0.212,0.222 -0.212,0.402 0,0.074 0.063,0.127 0.074,0.042 0.201,0.074 0.127,0.032 0.222,0.042 0.106,0.011 0.265,0.032 0.159,0.011 0.201,0.011 0.159,0.011 0.455,0.021 0.296,0 0.434,0.011 0.138,0.011 0.381,0.032 0.243,0.021 0.36,0.053 0.127,0.032 0.296,0.085 0.169,0.053 0.254,0.138 0.085,0.085 0.169,0.201 0.095,0.116 0.127,0.275 0.042,0.169 0.042,0.37 0,0.561 -0.497,0.984 -0.497,0.434 -1.111,0.614 -0.614,0.18 -1.154,0.18 -0.836,0 -1.334,-0.36 -0.487,-0.349 -0.487,-0.73 0,-0.148 0.095,-0.317 0.106,-0.159 0.201,-0.254 0.095,-0.095 0.36,-0.328 0.265,-0.222 0.381,-0.328 -0.55,-0.222 -0.55,-0.55 0,-0.466 0.942,-1.154 -0.995,-0.402 -0.995,-1.408 0,-0.762 0.54,-1.238 0.54,-0.476 1.312,-0.476 0.381,0 0.889,0.201 0.508,0.19 0.984,0.19 0.222,0 0.519,-0.032 z m -1.492,1.207 q 0,-0.54 -0.286,-1.101 -0.275,-0.571 -0.762,-0.571 -0.825,0 -0.825,1.01 0,0.635 0.254,1.175 0.265,0.529 0.836,0.529 0.783,0 0.783,-1.037 z m 1.101,3.598 q 0,-0.19 -0.116,-0.317 -0.106,-0.116 -0.349,-0.169 -0.243,-0.053 -0.434,-0.074 -0.191,-0.011 -0.529,-0.011 -0.995,0 -1.598,-0.116 -0.519,0.571 -0.519,0.931 0,0.307 0.37,0.519 0.37,0.222 1.132,0.222 0.931,0 1.482,-0.275 0.561,-0.265 0.561,-0.709 z"
               style="fill:url(#linearGradient1109);fill-opacity:1.0" />
          </g>
        </g>
        <g
           style="fill:#00b6b6;fill-opacity:1"
           id="g32"
           aria-label="Big"
           transform="translate(38.754,-2.138)">
          <path
             inkscape:connector-curvature="0"
             id="path28"
             d="m 14.696,211.34 q 0,0.889 -0.635,1.524 -0.635,0.635 -1.482,0.635 -0.931,0 -1.566,-0.635 -0.593,-0.635 -0.593,-1.524 0,-0.931 0.593,-1.566 0.635,-0.635 1.566,-0.635 0.847,0 1.482,0.635 0.635,0.635 0.635,1.566 z m 3.217,26.67 H 7.883 v -0.593 q 1.863,-0.127 2.498,-0.762 0.677,-0.635 0.677,-2.032 v -10.287 q 0,-1.82 -0.296,-2.498 -0.254,-0.677 -1.101,-0.677 -0.55,0 -1.778,0.339 v -0.593 l 6.773,-2.286 v 16 q 0,1.439 0.677,2.074 0.677,0.593 2.582,0.72 z"
             style="fill-opacity:1;fill:#00b6b6" />
          <path
             inkscape:connector-curvature="0"
             id="path30"
             d="M 38.544,221.67 H 35.03 q 0.804,1.736 0.804,3.641 0,2.963 -1.99,4.741 -1.99,1.736 -4.868,1.736 -0.296,0 -2.286,-0.296 -0.677,0.169 -1.566,1.101 -0.847,0.889 -0.847,1.609 0,0.296 0.254,0.508 0.296,0.169 0.804,0.296 0.508,0.127 0.889,0.169 0.423,0.042 1.058,0.127 0.635,0.042 0.804,0.042 0.635,0.042 1.82,0.085 1.185,0 1.736,0.042 0.55,0.042 1.524,0.127 0.974,0.085 1.439,0.212 0.508,0.127 1.185,0.339 0.677,0.212 1.016,0.55 0.339,0.339 0.677,0.804 0.381,0.466 0.508,1.101 0.169,0.677 0.169,1.482 0,2.244 -1.99,3.937 -1.99,1.736 -4.445,2.455 -2.455,0.72 -4.614,0.72 -3.344,0 -5.334,-1.439 -1.947,-1.397 -1.947,-2.921 0,-0.593 0.381,-1.27 0.423,-0.635 0.804,-1.016 0.381,-0.381 1.439,-1.312 1.058,-0.889 1.524,-1.312 -2.201,-0.889 -2.201,-2.201 0,-1.863 3.768,-4.614 -3.979,-1.609 -3.979,-5.63 0,-3.048 2.159,-4.953 2.159,-1.905 5.249,-1.905 1.524,0 3.556,0.804 2.032,0.762 3.937,0.762 0.889,0 2.074,-0.127 z m -5.969,4.826 q 0,-2.159 -1.143,-4.403 -1.101,-2.286 -3.048,-2.286 -3.302,0 -3.302,4.02 0,2.54 1.016,4.699 1.058,2.117 3.344,2.117 3.133,0 3.133,-4.149 z m 4.403,14.393 q 0,-0.762 -0.466,-1.27 -0.423,-0.466 -1.397,-0.677 -0.974,-0.212 -1.736,-0.296 -0.762,-0.042 -2.117,-0.042 -3.979,0 -6.392,-0.466 -2.074,2.286 -2.074,3.725 0,1.228 1.482,2.074 1.482,0.889 4.53,0.889 3.725,0 5.927,-1.101 2.244,-1.058 2.244,-2.836 z"
             style="fill-opacity:1;fill:#00b6b6" />
        </g>
        <g
           style="fill:#f3506f;fill-opacity:1"
           id="g38"
           aria-label="Ok"
           transform="translate(38.754,-2.138)">
          <path
             inkscape:connector-curvature="0"
             id="path34"
             d="m 46.826,234.71 q 0,4.667 -2.858,7.81 -2.826,3.112 -7.493,3.112 -4.35,0 -7.366,-3.02 -3.02,-3.048 -3.02,-7.906 0,-4.762 2.794,-7.874 2.826,-3.112 7.588,-3.112 2.572,0 4.604,0.952 2.032,0.952 3.239,2.572 1.238,1.588 1.873,3.493 0.635,1.905 0.635,3.969 z m -3.588,0 q 0,-2.635 -0.635,-4.762 -0.603,-2.127 -2.159,-3.588 -1.556,-1.46 -3.842,-1.46 -0.953,0 -1.81,0.222 -0.825,0.19 -1.81,0.826 -0.984,0.635 -1.683,1.683 -0.698,1.016 -1.175,2.857 -0.445,1.81 -0.445,4.223 0,4.572 1.81,7.176 1.81,2.603 4.572,2.603 3.302,0 5.239,-2.603 1.937,-2.603 1.937,-7.176 z"
             style="fill:url(#linearGradient1117);fill-opacity:1.0" />
          <path
             inkscape:connector-curvature="0"
             id="path36"
             d="m 63.739,245.19 h -6.858 v -0.445 q 1.111,0 1.111,-0.571 0,-0.286 -0.254,-0.603 l -4.731,-6.223 v 5.302 q 0,1.048 0.508,1.524 0.508,0.476 1.905,0.571 v 0.445 h -7.461 v -0.445 q 1.365,-0.095 1.873,-0.571 0.508,-0.476 0.508,-1.524 v -15.843 q 0,-0.826 -0.191,-1.048 -0.191,-0.222 -0.857,-0.222 h -1.048 v -0.571 q 0.444,-0.127 1.016,-0.254 0.603,-0.127 0.984,-0.222 0.413,-0.127 0.762,-0.254 l 2,-0.698 v 13.303 l 4,-3.493 q 1.08,-0.921 1.08,-1.333 0,-0.571 -1.619,-0.571 v -0.445 h 6.509 v 0.445 q -0.953,0 -1.746,0.222 -0.794,0.222 -1.619,0.762 -0.794,0.54 -1.334,0.984 -0.508,0.445 -1.524,1.365 -0.984,0.921 -1.556,1.429 l 4.604,5.874 q 1.968,2.54 3.937,2.667 z"
             style="fill:url(#linearGradient1119);fill-opacity:1.0" />
        </g>
      </g>
      <path
         style="fill:#00b6b6"
         inkscape:connector-curvature="0"
         id="path42"
         d="m 70.36,220.31 c 0.647,1.374 0.974,2.724 0.974,4.049 0,0.474 -0.033,0.904 -0.094,1.296 h 2.929 c 0.282,-0.743 0.425,-1.57 0.425,-2.481 0,-0.989 -0.165,-1.944 -0.49,-2.864 z m -5.884,12.643 v 3.188 c 1.487,0.216 3.332,0.326 5.545,0.326 0.903,0 1.609,0.014 2.117,0.042 0.372,0.041 0.795,0.113 1.243,0.2 v -3.03 c -0.005,-0.001 -0.011,-0.003 -0.016,-0.004 -0.31,-0.085 -0.791,-0.155 -1.44,-0.212 -0.649,-0.056 -1.157,-0.099 -1.524,-0.127 -0.367,-0.028 -0.946,-0.042 -1.736,-0.042 -0.79,-0.028 -1.397,-0.057 -1.82,-0.085 -0.113,0 -0.381,-0.014 -0.805,-0.042 -0.423,-0.056 -0.776,-0.099 -1.058,-0.127 -0.152,-0.017 -0.325,-0.048 -0.507,-0.085 z" />
    </g>
    <g
       transform="translate(-70.108061,-76.502915)"
       id="g1620"
       style="fill:#00b6bf;fill-opacity:1" />
  </g>
  <path
     inkscape:connector-curvature="0"
     style="fill:#00b6bf;fill-opacity:1;stroke-width:1"
     d="m -5.0720464,46.343486 v 0.846976 c 2.7373343,0 4.10620898,0.846564 4.10620898,2.539897 v 9.14208 h 1.154451 v 2.014347 2.014347 h -1.154451 v 5.876644 h 1.154451 2.03760202 v 2.037602 2.03812 H 0.18861358 -1.8495034 v -0.06718 c -0.6805612,0.488536 -1.7522454,0.734837 -3.222543,0.734837 v 0.846976 h 13.335104 c 3.3846664,0 6.0644844,-0.662874 8.0398184,-1.989542 2.006666,-1.354667 3.010152,-3.273938 3.010152,-5.75727 h 0.0021 c 0,-1.890665 -0.677251,-3.414482 -2.031918,-4.571815 -1.353333,-1.185333 -3.033337,-1.97558 -5.040002,-2.370915 3.753349,-0.931334 5.629645,-2.991684 5.629645,-6.181019 0,-4.769332 -3.88033,-7.154085 -11.6416664,-7.154085 z m 10.626741,1.692921 c 0.790001,0 1.467768,0.02808 2.032434,0.08475 0.592667,0.028 1.283777,0.155373 2.073775,0.381373 0.8186694,0.198001 1.4820614,0.480308 1.9900614,0.846976 0.508,0.366667 0.945399,0.917062 1.312064,1.651061 0.36654,0.733748 0.549711,1.608579 0.549838,2.624129 0,0 0,5.3e-4 0,5.3e-4 -2.46e-4,1.69282 -0.593098,2.991188 -1.778188,3.894335 -1.157332,0.903333 -2.8080014,1.354956 -4.9526664,1.354956 h -3.471109 v -9.610268 c 0,-0.479999 0.169315,-0.804767 0.507982,-0.974101 0.338666,-0.169333 0.917143,-0.25373 1.735809,-0.25373 z m -5.83995202,1.120346 h 0.829405 0.82940802 v 0.829405 0.829408 h -0.82940802 -0.829405 V 49.986158 Z M 3.3098716,60.569492 h 2.074291 c 6.0400014,0 9.0599124,2.003303 9.0599124,6.009968 l -0.0011,0.0011 c 0,2.286 -0.677248,3.89473 -2.031914,4.826061 -1.326002,0.931333 -3.2028164,1.396814 -5.6301494,1.396814 -1.439333,0 -2.384668,-0.169312 -2.836002,-0.507978 -0.423334,-0.338667 -0.635104,-0.931519 -0.635104,-1.778186 z"
     id="path26-2-2" />
  <path
     style="fill:url(#linearGradient1175-7);fill-opacity:1;stroke-width:0.04739296"
     d="m -8.2009664,71.151502 v -0.90046 h 0.9004679 0.9004641 v -1.3507 -1.3507 h 1.350698 1.350703 v 1.3507 1.3507 h -1.350703 -1.350698 v 0.90046 0.90047 h -0.9004641 -0.9004679 z m 5.2606198,0.0711 v -0.82937 h 0.8293752 0.82938 v 0.82937 0.82938 h -0.82938 -0.8293752 z m -6.9667658,-3.24641 v -0.6635 h 0.663499 0.6635049 v 0.6635 0.6635 h -0.6635049 -0.663499 z m 8.388557,-1.80093 v -0.85308 H -2.2531485 -2.9877374 V 64.58759 63.853 h 0.7345889 0.7345931 v 0.73459 0.734592 h 0.85307298 0.853073 v 0.85308 0.85307 h -0.853073 -0.85307298 z M -7.2057115,62.88144 v -1.25591 h -0.734594 -0.7345889 v -0.73459 -0.73459 h 0.7345889 0.734594 v 0.73459 0.73459 h 1.2559109 1.2559121 v 1.25591 1.25592 H -5.9498006 -7.2057115 Z M -12.229368,59.80089 V 59.0663 h 0.734594 0.734589 v 0.73459 0.73459 h -0.734589 -0.734594 z m 3.7914376,-2.74879 v -1.39809 h 1.3980938 1.398088 v 1.39809 1.39809 h -1.398088 -1.3980938 z m 4.8814748,0.71089 v -0.6872 h 0.687197 0.6871992 v 0.6872 0.6872 h -0.6871992 -0.687197 z m 0.142181,-3.981004 v -1.3507 h 1.3506992 1.35069798 v 1.3507 1.350699 H -2.0635754 -3.4142746 Z m -5.0236558,-2.440739 v -0.710895 h 0.710895 0.710896 v 0.710895 0.710894 h -0.710896 -0.710895 z m 4.2179739,-2.582916 v -0.687199 h 0.687198 0.6871979 v 0.687199 0.687197 h -0.6871979 -0.687198 z"
     id="path1438-0-1-0"
     inkscape:connector-curvature="0"
     sodipodi:nodetypes="ccccccccccccccccccccccccccccccccccccccccccccccccccccccccccccccccccccccccccccccccccccccccccccccccccccccccccccccccccccccccccc" />
  <path
     style="fill:url(#linearGradient1009);fill-opacity:1;stroke-width:1"
     d="m 8.7036223,4.5763406 v 0.8469763 c 2.7373367,0 4.1062117,0.8465635 4.1062117,2.5398969 v 2.7006102 h -1.097608 -1.350822 v 1.350822 1.350822 h 1.350822 1.097608 v 3.739822 h 1.154451 v 2.01435 2.014347 h -1.154451 v 2.421041 h -0.552939 v 0.852659 0.853179 h 0.552939 v 1.749763 h 1.154451 2.037602 v 2.037604 2.038117 h -2.037602 -2.03812 v -0.06718 c -0.680561,0.488534 -1.752242,0.734838 -3.2225427,0.734838 v 0.846976 H 22.038729 c 3.384666,0 6.064485,-0.662874 8.039817,-1.989543 2.006666,-1.354666 3.010154,-3.273938 3.010154,-5.757272 h 0.0021 c 0,-1.890665 -0.677251,-3.41448 -2.031918,-4.571812 -1.353349,-1.185334 -3.033337,-1.975581 -5.040003,-2.370916 3.753366,-0.931333 5.629632,-2.991683 5.629632,-6.181019 0,-4.7693312 -3.880331,-7.1540844 -11.641667,-7.1540844 z M 12.256895,23.555028 v -0.734841 -0.734322 h -0.734322 -0.734838 v 0.734322 0.734841 h 0.734838 z M 19.330366,6.2692613 c 0.790001,0 1.467768,0.028078 2.032434,0.084749 0.592667,0.028001 1.283777,0.1553713 2.073775,0.3813705 0.818669,0.1980036 1.482059,0.4803113 1.990059,0.8469789 0.508,0.3666648 0.945401,0.9170617 1.312066,1.6510609 0.36654,0.7337478 0.549709,1.6085794 0.549836,2.6241294 v 5.16e-4 c -2.46e-4,1.69282 -0.593096,2.991188 -1.778186,3.894336 -1.157332,0.903332 -2.808004,1.354958 -4.952669,1.354958 H 17.086575 V 7.497092 c 0,-0.4799992 0.169312,-0.8047673 0.507979,-0.9741006 C 17.933221,6.353658 18.5117,6.2692613 19.330366,6.2692613 Z m -9.7745975,0.034623 v 0.6872949 0.686779 h 0.6872945 0.686782 V 6.9911795 6.3038846 H 10.243063 Z M 13.490411,7.389605 h 0.829408 0.829405 V 8.2190129 9.0484182 H 14.319819 13.490411 V 8.2190129 Z M 5.3379375,8.8629003 v 0.7110677 0.711068 h 0.710551 0.7110677 V 9.573968 8.8629003 H 6.0484885 Z m 0,5.0239827 v 1.397847 1.397849 H 6.735785 8.133633 V 15.28473 13.886883 H 6.735785 Z m 4.8813555,1.421619 v 0.687295 0.686782 h 0.687298 0.686779 v -0.686782 -0.687295 h -0.686779 z m -8.6728554,1.990577 v 0.734322 0.734838 h 0.7343219 0.734839 v -0.734838 -0.734322 h -0.734839 z m 3.5543052,1.089856 v 0.734838 0.734322 H 5.8355814 6.5699037 V 19.123773 18.388935 H 5.8355814 Z m 1.4691609,1.46916 v 1.255739 1.256252 H 7.8256421 9.0818944 V 21.113834 19.858095 H 7.8256421 Z M 17.085541,18.802347 h 2.074293 c 6.040001,0 9.059911,2.003303 9.059911,6.009968 l -0.001,10e-4 c 0,2.286 -0.677252,3.894731 -2.031918,4.826061 -1.326002,0.931334 -3.202816,1.396815 -5.630149,1.396815 -1.439333,0 -2.384668,-0.169315 -2.836002,-0.507979 -0.423334,-0.338666 -0.635103,-0.931521 -0.635103,-1.778188 z M 3.8687766,25.545086 v 0.663525 0.663527 H 4.5317851 5.1953104 V 26.208611 25.545086 H 4.5317851 Z m 3.5067627,0.237197 v 1.350822 1.35082 h 1.3508212 1.3508225 v -1.35082 -1.350822 H 8.7263605 Z m 0,2.701642 H 6.4753358 5.5746155 v 0.900205 0.900718 H 6.4753358 7.3755393 V 29.38413 Z m 3.4597387,0.14211 v 0.829408 0.829405 h 0.829405 0.829408 v -0.829405 -0.829408 h -0.829408 z"
     id="path26-2-2-0"
     inkscape:connector-curvature="0" />
</svg>
