<?xml version="1.0" encoding="UTF-8" standalone="no"?>
<svg
   xmlns:dc="http://purl.org/dc/elements/1.1/"
   xmlns:cc="http://creativecommons.org/ns#"
   xmlns:rdf="http://www.w3.org/1999/02/22-rdf-syntax-ns#"
   xmlns:svg="http://www.w3.org/2000/svg"
   xmlns="http://www.w3.org/2000/svg"
   xmlns:sodipodi="http://sodipodi.sourceforge.net/DTD/sodipodi-0.dtd"
   xmlns:inkscape="http://www.inkscape.org/namespaces/inkscape"
   version="1.1"
   width="860mm"
   height="540mm"
   viewBox="-36 956 3619.7566 2040.9448"
   id="logo"
   sodipodi:docname="визитка1.svg"
   inkscape:version="0.92.3 (unknown)"
   inkscape:export-filename="/media/data/Астрология/Визитка/визитка1.png"
   inkscape:export-xdpi="96"
   inkscape:export-ydpi="96">
  <sodipodi:namedview
     pagecolor="#ffffff"
     bordercolor="#666666"
     borderopacity="1"
     objecttolerance="10"
     gridtolerance="10"
     guidetolerance="10"
     inkscape:pageopacity="0"
     inkscape:pageshadow="2"
     inkscape:window-width="1301"
     inkscape:window-height="744"
     id="namedview19"
     showgrid="false"
     inkscape:zoom="0.09125"
     inkscape:cx="-1514.5609"
     inkscape:cy="-367.52574"
     inkscape:window-x="65"
     inkscape:window-y="24"
     inkscape:window-maximized="1"
     inkscape:current-layer="logo"
     units="mm" />
  <metadata
     id="metadata34">
    <rdf:RDF>
      <cc:Work
         rdf:about="">
        <dc:format>image/svg+xml</dc:format>
        <dc:type
           rdf:resource="http://purl.org/dc/dcmitype/StillImage" />
        <dc:title></dc:title>
      </cc:Work>
    </rdf:RDF>
  </metadata>
  <defs
     id="defs32" />
  <g
     id="g1496"
     transform="matrix(9.9999992,0,0,9.9999994,324.00005,-29059.832)"
     inkscape:export-xdpi="96"
     inkscape:export-ydpi="96">
    <rect
       style="fill:#83a9d3;stroke-width:1.32249272"
       y="2989.9871"
       x="-36.000008"
       height="227.28705"
       width="361.97568"
       id="rect51" />
    <g
       transform="translate(-3.1758803,2081.0317)"
       id="g1525">
      <g
         transform="matrix(0.79373536,0,0,0.79373536,-58.761807,296.6419)"
         id="g27"
         style="fill:#ffffff">
        <path
           id="path5"
           d="m 93.501679,972.18359 c 5.047378,-0.2249 9.466221,1.99976 9.299291,7.01416 0.72957,-3.80486 5.05587,-6.42828 8.44238,-6.56982 -1.30123,1.74983 -2.11176,3.37154 -2.60254,5.45898 -0.054,1.61169 -0.16131,3.11853 -0.1904,4.69727 v 8.95019 c 1.43438,0.35668 2.56906,0.76754 3.9038,1.20606 -1.44732,0.56561 -2.70528,1.40534 -3.71338,2.34863 v 22.59764 c 2.68195,-0.2318 4.54345,-1.9693 5.93506,-3.9038 -0.7674,4.0654 -2.71222,10.0505 -7.23632,10.1245 -3.20184,-0.4437 -4.87994,-3.0548 -5.01465,-5.8398 v -10.3467 H 86.741425 c -0.550131,0.063 -1.068523,0.3701 -1.555176,0.9204 -1.949508,3.2185 2.052564,2.723 3.967285,3.2056 1.139315,0.142 1.896607,2.5697 2.666016,4.0625 1.984476,3.3042 8.32195,-2.4247 10.31494,-4.6656 -1.2642,3.9386 -3.290243,6.5195 -5.458983,9.6167 -1.200243,1.6427 -2.843075,2.838 -4.729004,2.8565 -1.483047,-0.3077 -2.278775,-1.5135 -2.983399,-2.5391 -1.456432,-2.1207 -3.81416,-3.6714 -5.935058,-4.8559 -0.575343,2.6716 -0.265081,5.1864 0.793457,7.395 -3.110351,-0.8041 -5.088704,-2.6872 -5.935059,-5.6494 -0.685134,-2.3591 -0.188482,-4.9279 0.729981,-6.8238 1.012648,-1.6414 2.234767,-2.9842 3.649902,-3.7133 3.960612,-6.155 7.278449,-12.68258 10.791016,-19.10648 -3.553645,-0.7703 -7.141737,0.54962 -8.696289,3.52295 -2.603668,-8.49363 5.954177,-10.2789 12.060547,-10.31494 l 1.428222,-2.95166 c -6.540677,-1.04256 -14.355549,0.009 -17.741699,5.45899 -3.165622,5.7775 -1.872352,13.05681 3.364258,16.66264 -18.547242,-10.48046 -3.99385,-28.32261 10.029297,-28.81841 z m -3.237309,29.32621 h 12.25098 v -19.48736 h -2.06299 z"
           inkscape:connector-curvature="0" />
        <path
           id="path7"
           d="m 121.43136,1001.4463 v -3.11036 l 8.50586,-8.60108 c 2.19031,-1.74424 5.11296,-1.76096 6.85547,0.19043 l 6.47461,7.01416 -4.79248,4.50685 -4.79248,-5.26857 c -0.35604,-0.98438 -1.09986,-1.26022 -1.96777,-1.52343 -1.24666,0.47435 -1.49208,2.21307 -1.42823,3.26904 v 14.63136 c 0.99031,2.5984 3.03336,3.3779 5.39551,4.6973 2.35056,-0.136 3.88235,-1.2278 4.79248,-3.1421 l 2.79297,1.5551 -10.60059,12.2828 -7.52197,-7.0142 h -3.396 v -3.3008 h 2.79297 v -16.1865 z"
           inkscape:connector-curvature="0" />
        <path
           id="path9"
           d="m 147.42501,997.92334 v -2.72949 l 7.39502,-7.20459 6.25245,6.2207 5.99853,-6.03027 6.28418,6.2207 5.90332,-6.2207 7.61719,7.01416 v 2.91992 h -2.9834 v 22.62943 l 5.20508,-3.4912 1.4917,1.9042 -7.99805,7.9981 -4.98291,-5.0464 v -23.99413 h -5.93506 v 22.81983 h 2.91992 v 2.7295 l -4.41162,3.4912 -4.63379,-4.856 v -24.37496 h -6.09375 v 22.81986 h 2.79297 v 2.7295 l -4.50683,3.6816 -7.36329,-6.4111 v -3.3008 h 2.79297 v -19.51906 z"
           inkscape:connector-curvature="0" />
        <path
           id="path11"
           d="m 193.47726,996.17773 7.42676,-8.3789 4.60205,6.98242 7.20459,-6.60156 c 3.90831,2.70928 6.50393,7.11669 6.91894,11.48926 v 17.36085 c -1.37302,4.1051 -3.74617,7.467 -6.91894,9.9341 -2.32995,-2.3689 -4.60902,-4.3496 -7.39502,-6.2207 l -0.19043,10.9179 3.396,2.92 -1.14258,2.3486 -4.66553,-3.3008 h -6.12549 v -2.9517 l 3.01514,-0.5712 v -12.4732 l -3.01514,-0.9839 v -2.1582 l 3.01514,-0.3808 v -20.09037 l -4.79248,4.31641 z m 11.83838,18.12257 4.79248,3.5229 c 1.49946,-1.9964 2.6589,-3.5645 3.93555,-5.4589 v -8.1885 c -0.0914,-3.724 -1.48269,-7.10045 -4.25293,-9.17238 l -4.4751,3.90381 z"
           inkscape:connector-curvature="0" />
        <path
           id="path13"
           d="m 223.75558,1014.4272 c 0.47963,-3.9038 -0.79806,-8.5459 0.47608,-12.2192 0.40201,-1.2272 1.13199,-2.26398 2.18994,-3.11034 l 10.66406,-10.91797 c 5.37655,1.49032 7.40919,6.86334 7.87109,11.17187 v 15.61524 c -2.27725,4.832 -5.47015,8.8973 -9.6167,11.6797 h -2.18994 l -6.72851,-6.4746 c -1.80659,-1.6169 -2.53334,-3.5553 -2.66602,-5.7447 z m 6.18897,-0.7934 c 1.82296,2.8973 5.51043,8.2563 8.60107,5.2051 -0.0464,-4.5414 -0.0843,-9.4983 0.25391,-13.8379 -0.22909,-3.3691 -2.90757,-6.88614 -5.90332,-6.95071 -2.04256,0.7301 -3.18515,2.43911 -3.20557,4.41161 -0.26792,3.5224 -0.43925,7.4201 0.25391,11.1719 z"
           inkscape:connector-curvature="0" />
        <path
           id="path15"
           d="m 248.8923,1001.4463 v -3.11036 l 8.50586,-8.60108 c 2.19031,-1.74424 5.11296,-1.76096 6.85547,0.19043 l 6.47461,7.01416 -4.79248,4.50685 -4.79248,-5.26857 c -1.74125,-2.78866 -3.52876,-0.44999 -3.396,1.74561 v 14.63136 c 0.8156,2.4813 3.43068,3.6148 5.39551,4.6973 2.16649,0.039 3.95441,-1.4188 4.79248,-3.1421 l 2.79297,1.5551 -10.60059,12.2828 -7.52197,-7.0142 h -3.396 v -3.3008 h 2.79297 v -16.1865 z"
           inkscape:connector-curvature="0" />
        <path
           id="path17"
           d="m 274.88595,997.92334 v -2.72949 l 7.39502,-7.20459 6.25244,6.2207 5.99854,-6.03027 6.28418,6.2207 5.90332,-6.2207 7.61719,7.01416 v 2.91992 h -2.9834 v 22.62943 l 5.20508,-3.4912 1.49169,1.9042 -7.99804,7.9981 -4.98291,-5.0464 V 998.11377 H 299.134 v 22.81983 h 2.91992 v 2.7295 l -4.41162,3.4912 -4.63379,-4.856 v -24.37496 h -6.09375 v 22.81986 h 2.79297 v 2.7295 l -4.50684,3.6816 -7.36328,-6.4111 v -3.3008 h 2.79297 v -19.51906 z"
           inkscape:connector-curvature="0" />
        <path
           id="path19"
           d="m 320.68429,988.62402 h 2.22168 l 10.0293,10.91797 -1.23779,2.34861 -5.3003,-3.90378 c -0.30918,8.90908 -0.77701,19.39998 9.58496,19.51908 v -21.86772 c 0.50827,-2.99932 2.06165,-5.5396 4.4751,-7.01416 l 7.52197,6.76026 v 2.60254 h -5.99853 v 24.43848 c 3.53919,4.7594 3.76793,9.5939 1.7456,14.314 -2.52579,1.4081 -5.80816,1.3266 -8.60107,1.333 -3.68559,-0.094 -6.88066,-2.0447 -8.72803,-4.729 v -5.459 h 2.79297 c 1.65806,4.8996 10.26925,8.3936 11.80664,5.2051 0.32679,-2.7668 -0.85425,-6.3256 -3.04687,-7.9029 -7.18263,-3.9116 -16.81905,-10.1638 -17.26563,-18.3447 0.17353,-6.404 -0.64451,-11.99433 0,-18.21778 z"
           inkscape:connector-curvature="0" />
        <path
           id="path21"
           d="m 352.10521,1004.5566 c 1.36878,-5.2071 4.68078,-8.75549 8.85498,-11.17183 l -4.41162,-5.20508 -4.25293,-0.25391 v -5.99853 l 5.20508,-3.64991 14.12353,14.59961 3.45948,-2.34863 1.7456,2.34863 -3.45947,2.85645 -0.0635,17.9004 c 0.0941,2.022 -0.48648,4.047 -1.93603,5.2051 l -8.66455,8.601 -9.14063,-8.8549 c -0.63477,-0.8464 -1.05794,-1.6293 -1.26953,-2.3487 -0.39413,-3.8454 -0.19041,-7.6965 -0.19041,-11.6797 z m 4.44334,4.1578 c 2.65222,4.1554 6.68894,7.1771 11.17187,8.3154 v -15.0757 c 0,-1.6081 -0.16927,-2.81413 -0.50781,-3.61816 -1.44742,-1.64 -2.87224,-2.79378 -4.95117,-3.68164 -2.11958,2.08881 -3.93808,3.74221 -5.45898,6.5381 -0.31136,2.8572 -0.4828,4.7915 -0.25391,7.522 z"
           inkscape:connector-curvature="0" />
        <path
           id="path23"
           d="m 380.95529,997.92334 v -2.12647 l 7.01416,-7.61718 c 3.35462,1.97369 4.23776,4.73263 4.25293,8.18847 v 15.01224 c 0.491,4.8741 4.65664,6.4671 8.88672,5.8716 v -19.13823 h -2.91993 v -1.74561 l 7.20459,-8.18847 h 1.11084 v 6.82373 h 3.11036 v 3.11035 h -2.91993 v 19.51903 h 5.71289 v 2.9199 l -7.01416,6.8238 -5.8081,-6.2525 -5.90332,6.0303 c -4.77601,-3.0173 -7.33713,-7.1033 -7.39502,-12.6636 v -16.56736 z"
           inkscape:connector-curvature="0" />
        <path
           id="path25"
           d="m 416.05783,1020.1719 v -2.8565 h 6.18896 c 0.0163,-4.4263 1.82484,-7.2505 5.64942,-9.0136 -5.06564,-1.7923 -9.34882,-4.662 -9.3628,-10.12455 3.01767,-7.34531 15.91689,-7.83771 19.2334,-3.04688 -0.36443,-2.43026 0.33366,-3.72422 1.4917,-5.74463 h 2.72949 l 4.69727,-2.5708 v 3.396 l -2.91992,1.77734 v 25.32712 h 2.91992 v 3.1104 l -7.42676,6.2207 c -0.71649,-3.9793 -1.4917,-7.895 -1.4917,-11.9336 l -5.64941,-3.6817 c -4.16446,4.3379 -6.3629,10.2404 -6.44287,15.8692 h -2.7295 z m 16.66259,-13.9331 h 5.04639 v -7.45853 c -2.85218,-1.60946 -7.61003,-2.37828 -9.6167,-0.19043 -1.32865,3.45206 1.66682,7.03466 4.57031,7.64896 z"
           inkscape:connector-curvature="0" />
      </g>
      <path
         d="m 81.982818,988.1138 10.475622,-0.6589 11.06858,1.18598 10.47562,-4.08486 9.94854,0.52688 -4.80955,-4.34815 -9.22381,-1.84472 -7.70849,-7.04976 -8.169663,-4.74363 8.828503,2.89892 8.89441,4.74359 h 9.94854 l 5.13898,1.7131 -4.2166,-9.35561 -8.36732,-6.39087 -5.00721,-10.01431 -5.9955,-8.63087 7.84026,7.04962 6.98376,8.82849 10.21207,4.34832 6.58844,7.18141 -0.26353,-6.78614 -5.00722,-7.64251 -0.65886,-9.81683 -2.24006,-9.48724 4.48015,8.56488 2.76714,9.55321 7.04964,6.85197 2.24006,5.46851 3.82129,-9.81687 -1.713,-10.21211 3.8213,-11.06849 1.97654,-10.47559 0.26356,10.47559 -1.18594,11.06849 4.15072,10.47577 -0.65885,10.0803 4.48012,-4.94143 2.10834,-8.96014 6.65429,-7.84031 4.87545,-7.90615 -2.89888,8.8285 -4.54605,8.89432 -0.26352,9.81687 -0.65886,2.50361 -1.1859,2.89892 9.55321,-4.48017 5.9296,-8.23558 10.47564,-5.00726 8.56497,-6.12725 -6.98374,7.97212 -8.63087,6.58835 -4.61192,10.60742 -7.51082,6.45669 c 2.16501,0.077 4.52026,-0.0459 6.4567,-0.26346 l 8.3673,-5.00726 10.01444,-0.92235 9.2897,-1.84471 -8.63087,4.08469 -9.75089,3.16255 -6.78609,6.65433 -4.87543,3.03069 9.42146,3.03053 10.40973,-1.58109 10.87094,3.68946 10.47562,1.97652 -10.47562,0.72472 -11.13447,-1.38345 -10.47564,4.15052 -9.75086,-0.52688 4.61191,4.34831 8.89437,1.8447 7.90614,7.0496 7.972,4.7438 -8.49909,-2.8991 -8.96026,-4.6776 h -8.23554 l -7.37907,-1.5814 4.61188,9.1581 8.43323,6.0614 5.20487,10.4756 5.66606,8.5649 -7.6426,-6.9836 -7.04963,-8.8945 -10.40975,-4.4802 -6.65431,-7.2472 0.26354,6.3249 5.13899,7.5767 c 1.08738,3.4731 0.59293,7.2074 0.59293,10.8054 l 2.24007,8.8941 -4.1507,-8.2356 -2.76713,-9.4872 -7.24729,-7.3131 -2.63539,-5.139 -3.22834,9.9487 1.58122,10.4093 -3.68952,10.7393 -1.97654,10.2123 -0.26351,-10.4758 0.92236,-11.1345 -3.82127,-10.4756 0.13182,-9.619 -4.21662,4.8754 -1.91066,8.8945 -6.7202,7.9062 -5.00721,7.9718 2.76713,-8.8944 4.74369,-8.5648 v -8.6311 l 2.63537,-7.2474 -4.74367,2.2402 -5.13899,2.5038 c -2.15417,2.611 -4.06874,5.3915 -5.99546,8.1696 -3.46995,1.7348 -6.93984,3.4699 -10.40976,5.2049 l -9.026136,5.9296 7.313136,-7.9062 c 2.89818,-2.1624 5.72448,-4.4174 8.56498,-6.6545 l 4.48014,-10.4098 7.57671,-6.3905 h -6.3249 l -10.08033,5.4684 -8.3673,0.2634 -9.092047,2.2402 8.564977,-4.1509 9.42146,-3.1622 6.98376,-6.98373 5.20487,-2.24019 -9.55326,-3.49178 -10.4756,1.58105 -10.805041,-3.82104 z m 10.475622,0.26346 c 4.251351,1.23366 8.37619,2.92308 12.7157,3.82143 l 9.09204,-3.1627 9.55324,3.1627 1.05416,5.9956 -6.3908,1.97641 -6.98375,6.5883 -9.55322,2.24 9.81677,-1.3175 7.90612,-6.3249 6.3908,-0.2636 3.55775,5.4025 -8.56498,5.732 -4.80956,10.4098 -9.22382,5.7319 10.14621,-5.0732 5.73193,-9.8827 8.82852,-4.4143 5.20486,3.4921 -3.88716,8.3014 0.26352,7.3131 -5.27075,8.1698 6.32489,-7.9062 0.52709,-7.9719 4.28249,-6.984 6.58844,1.9766 -1.84478,9.8166 4.08485,10.41 -2.24007,10.8708 3.42598,-10.8708 -2.76713,-10.7393 3.16246,-9.4873 5.73191,-1.0542 1.84479,5.7979 6.98375,7.3133 1.84475,9.4874 -0.92238,-9.7511 -6.58844,-8.3674 v -5.6661 l 5.0072,-3.4258 6.12726,8.1696 10.01442,4.7438 6.12725,9.2897 -5.07308,-10.2121 -9.88269,-5.4025 -4.41423,-9.158 3.49185,-4.8756 7.37906,3.1626 8.23555,0.1301 7.90612,5.3366 -7.64258,-6.3907 -9.685,-1.3175 -5.27077,-4.08487 1.3177,-5.99564 10.14619,1.91074 10.47563,-4.15072 10.73914,2.23998 -12.32037,-3.42596 -9.28969,3.16254 -9.48737,-3.16254 -0.52707,-6.06126 5.66606,-1.58125 6.91787,-7.31323 9.88266,-1.58129 -10.1462,0.9224 -7.57671,6.39087 -6.06137,0.65889 -3.88718,-5.73197 8.63089,-6.06143 4.34834,-10.21214 9.28971,-5.92957 -9.81678,5.00721 -5.66607,10.21215 -9.02615,4.34836 -5.00721,-4.0849 3.16244,-5.00709 v -9.81684 l 5.46843,-8.36723 -6.39081,7.70834 -0.92239,10.2121 -3.82127,4.48018 -6.39079,-1.44944 1.64712,-9.81688 -4.15073,-10.47556 2.50361,-10.67324 -3.426,10.67324 2.76715,10.87104 -3.16246,9.4214 -5.92958,1.05416 -1.58123,-6.12724 -7.04964,-6.98378 -1.97653,-9.81687 1.05416,10.21214 5.86371,7.77432 0.65885,6.52268 -5.33664,2.89892 -5.92959,-8.30144 -9.94855,-4.54616 -5.92961,-9.09195 5.00721,9.75089 9.81679,5.73197 4.2166,8.82849 -3.55775,5.07304 -5.00723,-3.09652 c -3.59989,-0.31641 -6.80609,0.25557 -10.21207,0 l -8.23556,-5.40252 7.97201,6.32488 10.47562,1.31763 4.34838,4.15088 -1.58123,5.92945 -10.08031,-1.84471 -10.47564,4.08486 -10.80503,-2.50381 z m 35.18229,-4.48017 5.13897,-3.68943 10.08032,3.68943 2.5036,5.7978 -4.6119,-5.40233 c -2.22345,-1.37997 -4.94578,-1.78237 -7.44495,-2.50361 z m 3.55775,1.97656 5.33664,-0.92219 4.74367,3.16234 -3.42598,-0.6589 -1.91067,2.50381 -2.24006,-2.24019 0.65883,-0.92251 z m 9.42145,19.69935 5.40254,-0.9222 1.71299,-0.9223 1.05414,0.6589 0.65885,-0.6589 1.44947,0.9223 5.60015,0.9222 z m 3.16246,0.2638 2.89891,0.9222 h 4.08482 l 2.83306,-0.9222 -3.09657,1.9764 h -3.16246 z m 0,-6.72015 1.31768,-2.37196 -0.39529,2.37196 1.18592,1.71285 z m 2.63539,1.71285 v -1.5812 l 1.44945,1.8447 z m 2.89891,0.2635 1.18592,-1.8447 0.26351,1.5812 z m 0.52707,-8.63105 3.49187,-9.48722 10.80506,-2.76707 4.41423,3.68943 -4.67778,-1.84472 -8.82852,1.84472 -4.80955,8.3016 2.83302,5.9956 -1.31769,2.24001 0.39533,-2.24001 z m 4.1507,-4.34815 4.74371,-3.55778 5.40251,1.31763 -3.16245,0.6589 0.26354,0.92235 -1.84477,2.23999 -1.84477,-2.63526 z"
         id="path3"
         style="fill:#ffffff;stroke-width:1.43351626"
         inkscape:connector-curvature="0" />
    </g>
  </g>
</svg>
